<?xml version="1.0" encoding="UTF-8" standalone="no"?>
<svg
   xmlns:dc="http://purl.org/dc/elements/1.1/"
   xmlns:cc="http://creativecommons.org/ns#"
   xmlns:rdf="http://www.w3.org/1999/02/22-rdf-syntax-ns#"
   xmlns:svg="http://www.w3.org/2000/svg"
   xmlns="http://www.w3.org/2000/svg"
   xmlns:sodipodi="http://sodipodi.sourceforge.net/DTD/sodipodi-0.dtd"
   xmlns:inkscape="http://www.inkscape.org/namespaces/inkscape"
   id="Layer_2"
   data-name="Layer 2"
   viewBox="0 0 73.36 78"
   version="1.1"
   sodipodi:docname="icons-disease-models CC.svg"
   inkscape:version="1.0.2-2 (e86c870879, 2021-01-15)">
  <metadata
     id="metadata3749">
    <rdf:RDF>
      <cc:Work
         rdf:about="">
        <dc:format>image/svg+xml</dc:format>
        <dc:type
           rdf:resource="http://purl.org/dc/dcmitype/StillImage" />
        <dc:title />
      </cc:Work>
    </rdf:RDF>
  </metadata>
  <sodipodi:namedview
     pagecolor="#ffffff"
     bordercolor="#666666"
     borderopacity="1"
     objecttolerance="10"
     gridtolerance="10"
     guidetolerance="10"
     inkscape:pageopacity="0"
     inkscape:pageshadow="2"
     inkscape:window-width="1920"
     inkscape:window-height="1001"
     id="namedview3747"
     showgrid="false"
     inkscape:zoom="10.358974"
     inkscape:cx="20.80005"
     inkscape:cy="38.613862"
     inkscape:window-x="-9"
     inkscape:window-y="-9"
     inkscape:window-maximized="1"
     inkscape:current-layer="Layer_2"
     inkscape:document-rotation="0" />
  <defs
     id="defs3737">
    <style
       id="style3732">
      .cls-1 {
        fill: #fff;
      }

      .cls-2 {
        fill: #fcc75f;
      }

      .cls-3 {
        clip-path: url(#clippath);
      }

      .cls-4 {
        fill: none;
      }
    </style>
    <clipPath
       id="clippath">
      <rect
         class="cls-4"
         x="12"
         y="19"
         width="48"
         height="30"
         id="rect3734" />
    </clipPath>
  </defs>
  <g
     id="Layer_1-2"
     data-name="Layer 1">
    <rect
       class="cls-2"
       x="0"
       y="0"
       width="73.36"
       height="78"
       rx="36.68"
       ry="36.68"
       id="rect3739" />
    <g
       class="cls-3"
       clip-path="url(#clippath)"
       id="g3743">
      <path
         class="cls-1"
         d="m59.91,42.93c-.36-3.77-1.73-7.12-4.28-9.9-1.32-1.43-2.87-2.64-4.33-3.94-.23-.2-.35-.4-.34-.71.03-.64.02-1.28,0-1.93-.09-4.63-3.95-8.04-8.48-7.37-2.97.44-5.04,2.14-5.98,4.98-.32,1.39-.18,2.88.41,4.43.68,1.81,1.97,3.08,3.68,3.97.77.4,1.01,1.19.64,1.91-.36.7-1.17.95-1.93.59-3.55-1.7-5.79-5.44-5.75-9.3-.32.01-.64.03-.7.05-5.33,1.7-9,5.18-10.92,10.46-1.08,2.97-.98,6.06-.84,9.15,0,.04,0,.07.02.11-.09.05-.15.1-.19.12-.91.56-1.83.77-2.76.61-.04-.01-.08-.03-.13-.04-.18-.04-.36-.09-.53-.14-.23-.09-.47-.19-.7-.33-1.37-.79-1.98-2.03-1.94-3.6,0-.21.01-.42.02-.64.16-.73.56-1.4,1.17-2.02.56-.56,1.15-1.11,1.68-1.71,2.01-2.26.85-5.87-2.1-6.49-.59-.13-1.21-.05-1.82-.1-.87-.07-1.48.26-1.81,1.08v.66c.32.83.94,1.15,1.8,1.09.34-.02.69,0,1.03,0,.49.02.82.26,1.01.71.19.45.09.87-.24,1.21-.46.49-.94.96-1.42,1.43-1.14,1.1-1.88,2.4-2.1,3.98-.01.07-.05.45-.05,1.02s.04.96.06,1.05c.2,1.13.62,2.12,1.24,2.96,0,.02.6.71.84.92.1.1.96.74,1.22.9.63.37,1.29.62,1.96.76.38.08.78.13,1.17.15.35.01.7,0,1.05-.03,0,0,0-.01,0-.02.27-.03.54-.08.82-.14.8-.18,1.51-.5,2.14-.93.8.71,1.88,1.11,3.11,1.11,8.07,0,16.15,0,24.23,0,1.95,0,3.91.02,5.86-.01,1.95-.03,3.6-1.35,4.12-3.24.05-.18.11-.35.17-.52v-1.88c-.03-.14-.07-.27-.09-.41h0Zm-10.4-4.51c-.77-.03-1.37-.67-1.36-1.45.02-.78.65-1.38,1.43-1.36.77.02,1.39.67,1.37,1.44-.03.76-.7,1.4-1.44,1.38h0Z"
         id="path3741" />
    </g>
  </g>
  <path
     style="stroke-width:0.09653465;fill:#ed6d91;fill-opacity:1"
     d="M 33.783961,77.85375 C 30.443958,77.587598 26.919526,76.808576 23.761222,75.638377 22.131462,75.034527 18.740256,73.368151 17.349712,72.487881 14.975826,70.985113 13.101065,69.517939 11.206755,67.680446 5.1773846,61.831911 1.4329304,54.381123 0.33955819,46.056683 -0.04720805,43.112021 -0.1025448,35.914864 0.23761668,32.798063 1.1404582,24.525586 4.6538227,17.025587 10.369477,11.169524 16.45844,4.9309805 23.79908,1.3390593 32.72208,0.23195082 c 1.551458,-0.19249506 6.755195,-0.16096924 8.350247,0.0505884 7.130318,0.94571998 12.958811,3.39346858 18.571168,7.79919408 1.406175,1.1038532 4.506391,4.2145157 5.696081,5.7152727 4.363,5.503792 7.022553,11.997701 7.781803,19.001057 0.338444,3.121831 0.283674,10.338823 -0.100622,13.25862 -1.4475,10.997818 -7.509094,20.416441 -17.010468,26.431198 -1.385159,0.876861 -4.779799,2.545949 -6.394645,3.144139 -5.017556,1.858663 -10.584329,2.639873 -15.831683,2.22173 z M 20.504114,48.80954 c 0.41171,-0.105297 1.030648,-0.341238 1.375417,-0.524311 l 0.626854,-0.332861 0.499817,0.319729 c 0.274899,0.175851 0.716346,0.400931 0.980991,0.500177 0.461637,0.173122 1.125927,0.181605 16.361124,0.20893 17.746942,0.03183 16.521067,0.07701 17.644494,-0.65034 0.886634,-0.574043 1.47175,-1.351842 1.855056,-2.465943 0.254898,-0.740873 0.255499,-2.029686 0.0017,-3.709433 -0.342049,-2.264081 -0.827296,-3.818142 -1.7509,-5.607468 -1.134098,-2.197124 -2.262571,-3.532566 -5.061846,-5.990219 -1.031554,-0.905664 -1.914515,-1.720289 -1.962135,-1.810276 -0.04762,-0.08999 -0.107361,-0.945545 -0.132759,-1.901238 -0.05187,-1.9518 -0.151406,-2.448034 -0.735806,-3.668317 -0.930079,-1.942095 -2.479103,-3.278776 -4.548426,-3.924919 -1.030723,-0.321841 -3.068048,-0.322287 -4.193794,-8.69e-4 -1.977249,0.564452 -3.488384,1.75697 -4.42427,3.49143 -0.592648,1.098346 -0.698769,1.54561 -0.687131,2.896039 0.01221,1.416837 0.263565,2.417402 0.932462,3.711821 0.524947,1.015856 1.716489,2.223541 2.842665,2.881179 0.999675,0.583767 1.186009,0.811664 1.186009,1.450555 0,0.608943 -0.286691,1.065248 -0.798365,1.2707 -0.509633,0.204635 -0.712725,0.185168 -1.373665,-0.131662 -1.888545,-0.905299 -3.669236,-2.779502 -4.642763,-4.886574 -0.441049,-0.954592 -0.785955,-2.312625 -0.869956,-3.425363 l -0.06573,-0.870703 h -0.328236 c -0.417145,0 -1.919911,0.558716 -3.167577,1.17768 -3.337339,1.655643 -5.799913,4.197651 -7.478234,7.719454 -1.254504,2.632459 -1.701829,5.185831 -1.626482,9.284087 l 0.03046,1.65665 -0.53094,0.264971 c -1.088633,0.543293 -2.185293,0.55127 -3.351497,0.02438 -0.595842,-0.2692 -1.396745,-0.98985 -1.727696,-1.554575 -0.331134,-0.565037 -0.550827,-1.679234 -0.482425,-2.446669 0.08816,-0.989097 0.40325,-1.501253 1.85422,-3.013886 0.979166,-1.020779 1.359136,-1.491688 1.602502,-1.986033 0.302489,-0.614444 0.319004,-0.703072 0.319004,-1.711902 0,-0.957392 -0.02642,-1.120316 -0.263925,-1.627277 -0.773978,-1.652103 -2.081458,-2.380941 -4.271226,-2.380941 -1.039423,0 -1.40157,0.111636 -1.825739,0.562805 -0.565323,0.601309 -0.393963,1.660287 0.338393,2.09121 0.257904,0.151753 0.56511,0.202956 1.454643,0.24245 1.024793,0.0455 1.150461,0.07146 1.377242,0.284511 0.300141,0.281967 0.484283,0.839536 0.373931,1.132238 -0.04365,0.115771 -0.589578,0.737532 -1.21318,1.38169 -1.554874,1.60613 -2.0886,2.429739 -2.441231,3.767141 -0.227953,0.864543 -0.233193,2.540901 -0.01071,3.425331 0.217758,0.865635 0.780697,1.97404 1.324824,2.608523 0.926713,1.080601 2.377564,2.00468 3.618839,2.304916 0.869707,0.210362 2.467844,0.192881 3.365964,-0.03682 z"
     id="path3751"
     inkscape:connector-curvature="0" />
  <path
     style="fill:#ff4ccc;fill-opacity:1;stroke-width:0.09653465"
     d="m 48.935676,38.228799 c -0.671406,-0.342541 -0.944416,-1.44116 -0.498885,-2.007561 0.730045,-0.928101 2.243277,-0.584341 2.457638,0.558302 0.07834,0.41759 -0.194823,1.070474 -0.555265,1.327131 -0.382059,0.272049 -1.003618,0.326136 -1.403488,0.122128 z"
     id="path4558"
     inkscape:connector-curvature="0" />
  <path
     style="fill:#ff4dcc;fill-opacity:0;stroke-width:0.0965347"
     d="M 33.542625,77.802884 C 31.137716,77.575455 28.406895,77.044479 26.023564,76.34089 22.316309,75.246461 18.019207,73.081101 14.766958,70.668553 12.754575,69.175749 10.143086,66.686595 8.4692333,64.665843 3.7289018,58.943099 0.82181683,51.834465 0.22319607,44.501984 0.0550662,42.442568 0.05546405,34.912863 0.22379027,33.256188 1.1271811,24.364973 4.8126174,16.668158 11.109545,10.521934 16.985257,4.7868427 23.943569,1.4339541 32.243963,0.33823345 33.616354,0.15706657 39.216015,0.12274668 40.686189,0.28649171 47.183767,1.0101785 53.152743,3.3553605 58.565371,7.3111359 c 1.983759,1.4498146 5.029012,4.3880261 6.67985,6.4450511 4.164777,5.189519 6.797957,11.385319 7.728902,18.185896 0.358769,2.620812 0.434139,9.046757 0.148454,12.656927 -0.970854,12.26859 -8.590837,23.624441 -19.58597,29.188434 -2.2763,1.151902 -3.556845,1.706019 -5.167057,2.235885 -2.255269,0.742132 -4.525894,1.257085 -7.055885,1.600198 -1.652598,0.224121 -6.190234,0.328852 -7.77104,0.179357 z m -13.405722,-28.9014 c 0.421147,-0.07512 1.086792,-0.295486 1.5543,-0.514568 l 0.817694,-0.383184 0.376393,0.235165 c 1.068632,0.667663 0.854398,0.638607 5.251394,0.712235 5.779604,0.09678 25.54352,0.09492 27.389579,-0.0026 1.846733,-0.09753 2.117881,-0.193786 3.079231,-1.093081 1.112862,-1.041028 1.55748,-2.297743 1.444972,-4.084216 -0.169521,-2.691738 -0.844061,-5.172421 -2.002797,-7.365461 -1.031615,-1.952453 -2.116118,-3.273751 -4.307093,-5.247526 -0.781955,-0.704438 -1.702352,-1.548279 -2.045325,-1.875203 l -0.623589,-0.594408 -0.0795,-1.674157 c -0.09794,-2.062441 -0.245001,-2.780589 -0.798475,-3.899188 -0.995725,-2.012415 -2.79152,-3.485921 -4.825567,-3.95953 -1.058173,-0.246387 -3.334851,-0.14961 -4.271192,0.181559 -1.863098,0.65895 -3.21153,1.789131 -4.110065,3.444834 -0.56899,1.048459 -0.675553,1.578276 -0.619906,3.082098 0.05546,1.498653 0.229367,2.181039 0.875171,3.433991 0.506102,0.981912 1.701065,2.215489 2.876229,2.96917 0.457556,0.29345 0.902822,0.634773 0.98948,0.758495 0.21449,0.306225 0.201889,1.025191 -0.02447,1.396398 -0.203392,0.33354 -0.724584,0.619749 -1.128573,0.619749 -0.417866,0 -1.572872,-0.621202 -2.429804,-1.306832 -2.251007,-1.801029 -3.599149,-4.358806 -3.865051,-7.33302 -0.06204,-0.693966 -0.09033,-0.775308 -0.278954,-0.802169 -0.332026,-0.04728 -1.904027,0.514887 -3.175512,1.135606 -3.414941,1.66712 -5.87823,4.163529 -7.572133,7.673942 -1.273149,2.63845 -1.672295,4.693158 -1.682413,8.660647 l -0.0061,2.380897 -0.493838,0.242263 c -1.530785,0.750961 -3.133463,0.467289 -4.40041,-0.778867 -0.302605,-0.297638 -0.636311,-0.741356 -0.741572,-0.98604 -0.266895,-0.620414 -0.432155,-1.666 -0.356873,-2.257906 0.10631,-0.835859 0.455918,-1.38852 1.839208,-2.907422 0.853312,-0.936964 1.405294,-1.633703 1.594926,-2.013189 0.272262,-0.544846 0.28999,-0.648746 0.289918,-1.699195 -7e-5,-1.032229 -0.02149,-1.163712 -0.276634,-1.698071 -0.644334,-1.349454 -1.729865,-2.080341 -3.391606,-2.283565 -1.523512,-0.186321 -2.315367,0.0151 -2.838896,0.722135 -0.27883,0.37656 -0.264828,1.085927 0.0296,1.499407 0.334216,0.469363 0.671365,0.590399 1.899993,0.682098 1.261206,0.09413 1.495488,0.217013 1.697177,0.890189 0.135292,0.451566 0.127596,0.463748 -1.18041,1.868177 -2.044182,2.194875 -2.47237,3.0404 -2.571049,5.076957 -0.07369,1.520747 0.05909,2.218752 0.656147,3.449342 0.558684,1.151502 1.274784,1.948147 2.413099,2.684518 1.557037,1.007243 3.10157,1.302266 5.023275,0.959503 z"
     id="path846" />
  <path
     style="fill:#ff4dcc;fill-opacity:0;stroke-width:0.0965347"
     d="M 33.542625,77.802884 C 31.137716,77.575455 28.406895,77.044479 26.023564,76.34089 22.316309,75.246461 18.019207,73.081101 14.766958,70.668553 12.754575,69.175749 10.143086,66.686595 8.4692333,64.665843 3.7289018,58.943099 0.82181683,51.834465 0.22319607,44.501984 0.0550662,42.442568 0.05546405,34.912863 0.22379027,33.256188 1.1271811,24.364973 4.8126174,16.668158 11.109545,10.521934 16.985257,4.7868427 23.943569,1.4339541 32.243963,0.33823345 33.616354,0.15706657 39.216015,0.12274668 40.686189,0.28649171 47.183767,1.0101785 53.152743,3.3553605 58.565371,7.3111359 c 1.983759,1.4498146 5.029012,4.3880261 6.67985,6.4450511 4.164777,5.189519 6.797957,11.385319 7.728902,18.185896 0.358769,2.620812 0.434139,9.046757 0.148454,12.656927 -0.970854,12.26859 -8.590837,23.624441 -19.58597,29.188434 -2.2763,1.151902 -3.556845,1.706019 -5.167057,2.235885 -2.255269,0.742132 -4.525894,1.257085 -7.055885,1.600198 -1.652598,0.224121 -6.190234,0.328852 -7.77104,0.179357 z m -13.405722,-28.9014 c 0.421147,-0.07512 1.086792,-0.295486 1.5543,-0.514568 l 0.817694,-0.383184 0.376393,0.235165 c 1.068632,0.667663 0.854398,0.638607 5.251394,0.712235 5.779604,0.09678 25.54352,0.09492 27.389579,-0.0026 1.846733,-0.09753 2.117881,-0.193786 3.079231,-1.093081 1.112862,-1.041028 1.55748,-2.297743 1.444972,-4.084216 -0.169521,-2.691738 -0.844061,-5.172421 -2.002797,-7.365461 -1.031615,-1.952453 -2.116118,-3.273751 -4.307093,-5.247526 -0.781955,-0.704438 -1.702352,-1.548279 -2.045325,-1.875203 l -0.623589,-0.594408 -0.0795,-1.674157 c -0.09794,-2.062441 -0.245001,-2.780589 -0.798475,-3.899188 -0.995725,-2.012415 -2.79152,-3.485921 -4.825567,-3.95953 -1.058173,-0.246387 -3.334851,-0.14961 -4.271192,0.181559 -1.863098,0.65895 -3.21153,1.789131 -4.110065,3.444834 -0.56899,1.048459 -0.675553,1.578276 -0.619906,3.082098 0.05546,1.498653 0.229367,2.181039 0.875171,3.433991 0.506102,0.981912 1.701065,2.215489 2.876229,2.96917 0.457556,0.29345 0.902822,0.634773 0.98948,0.758495 0.21449,0.306225 0.201889,1.025191 -0.02447,1.396398 -0.203392,0.33354 -0.724584,0.619749 -1.128573,0.619749 -0.417866,0 -1.572872,-0.621202 -2.429804,-1.306832 -2.251007,-1.801029 -3.599149,-4.358806 -3.865051,-7.33302 -0.06204,-0.693966 -0.09033,-0.775308 -0.278954,-0.802169 -0.332026,-0.04728 -1.904027,0.514887 -3.175512,1.135606 -3.414941,1.66712 -5.87823,4.163529 -7.572133,7.673942 -1.273149,2.63845 -1.672295,4.693158 -1.682413,8.660647 l -0.0061,2.380897 -0.493838,0.242263 c -1.530785,0.750961 -3.133463,0.467289 -4.40041,-0.778867 -0.302605,-0.297638 -0.636311,-0.741356 -0.741572,-0.98604 -0.266895,-0.620414 -0.432155,-1.666 -0.356873,-2.257906 0.10631,-0.835859 0.455918,-1.38852 1.839208,-2.907422 0.853312,-0.936964 1.405294,-1.633703 1.594926,-2.013189 0.272262,-0.544846 0.28999,-0.648746 0.289918,-1.699195 -7e-5,-1.032229 -0.02149,-1.163712 -0.276634,-1.698071 -0.644334,-1.349454 -1.729865,-2.080341 -3.391606,-2.283565 -1.523512,-0.186321 -2.315367,0.0151 -2.838896,0.722135 -0.27883,0.37656 -0.264828,1.085927 0.0296,1.499407 0.334216,0.469363 0.671365,0.590399 1.899993,0.682098 1.261206,0.09413 1.495488,0.217013 1.697177,0.890189 0.135292,0.451566 0.127596,0.463748 -1.18041,1.868177 -2.044182,2.194875 -2.47237,3.0404 -2.571049,5.076957 -0.07369,1.520747 0.05909,2.218752 0.656147,3.449342 0.558684,1.151502 1.274784,1.948147 2.413099,2.684518 1.557037,1.007243 3.10157,1.302266 5.023275,0.959503 z"
     id="path848" />
  <path
     style="fill:#ff4dcc;fill-opacity:0;stroke-width:0.0965347"
     d="m 49.025637,38.229647 c -0.464304,-0.1876 -0.854624,-1.008341 -0.743582,-1.563555 0.0777,-0.388516 0.545276,-0.830924 0.960519,-0.908824 0.475456,-0.0892 1.035821,0.101217 1.331303,0.452377 0.316757,0.376444 0.340108,1.046014 0.05291,1.51708 -0.300972,0.493654 -1.045385,0.727475 -1.601147,0.502922 z"
     id="path850" />
  <path
     style="fill:#ed6d91;fill-opacity:1;stroke-width:0.0965347;stroke:#ed6d91;stroke-opacity:1"
     d="m 49.025637,38.229647 c -0.464304,-0.1876 -0.854624,-1.008341 -0.743582,-1.563555 0.0777,-0.388516 0.545276,-0.830923 0.960519,-0.908823 0.475456,-0.0892 1.035821,0.101216 1.331303,0.452376 0.316757,0.376445 0.340108,1.046015 0.05291,1.51708 -0.300972,0.493654 -1.045385,0.727475 -1.601147,0.502922 z"
     id="path3308" />
  <path
     style="fill:#ed6d91;fill-opacity:1;stroke:#ed6d91;stroke-width:0.0965347;stroke-opacity:1"
     d="M 33.011684,77.746771 C 29.491063,77.367411 25.5928,76.398567 22.77901,75.203622 20.983735,74.441215 17.86298,72.797732 16.552525,71.924569 7.1103781,65.633218 1.182805,55.697171 0.22205217,44.550743 0.0566792,42.632124 0.05445068,34.739204 0.21884958,33.207921 1.1468237,24.564366 4.5794738,17.159911 10.416013,11.211959 14.128647,7.4284557 17.758616,4.923007 22.392872,2.9453848 25.893564,1.4514995 30.483389,0.38122988 34.218367,0.18787918 c 3.160989,-0.16363666 6.421706,5.8017e-4 8.881189,0.4472765 5.909318,1.07326212 11.035523,3.32228782 15.835334,6.94745342 1.66926,1.2607457 4.3614,3.8501519 6.001774,5.7727389 2.870001,3.363764 5.471045,8.261929 6.82806,12.858285 1.24085,4.202899 1.621545,7.691193 1.516596,13.896516 -0.065,3.843337 -0.157497,5.1822 -0.500997,7.251905 -1.691419,10.191408 -7.372192,18.861665 -16.193361,24.715052 -1.064857,0.706598 -4.029367,2.264164 -5.746042,3.018992 -3.010841,1.32388 -6.916222,2.285581 -10.830473,2.667008 -1.755241,0.171041 -5.337431,0.16268 -6.998763,-0.01633 z M 20.852953,48.703552 c 0.422203,-0.136778 0.961971,-0.351019 1.199485,-0.476091 l 0.431843,-0.227403 0.823107,0.447372 0.823108,0.447373 5.309406,0.06195 c 7.667133,0.08946 23.940084,0.08528 25.932219,-0.0067 2.039921,-0.09415 2.277495,-0.180878 3.324641,-1.213703 0.562552,-0.55486 0.743393,-0.813895 1.010906,-1.44802 0.314956,-0.746588 0.325646,-0.814024 0.321344,-2.027228 -0.0075,-2.116736 -0.56801,-4.758765 -1.420519,-6.695849 -1.036353,-2.35478 -2.373551,-4.126905 -4.720067,-6.25524 C 53.0783,30.575212 52.114793,29.68633 51.747299,29.334719 L 51.07913,28.695427 50.955688,26.728283 c -0.13623,-2.170935 -0.181323,-2.392568 -0.714476,-3.511697 -0.985846,-2.069364 -2.884943,-3.631228 -4.947589,-4.069016 -1.073324,-0.227808 -3.167831,-0.135874 -4.140848,0.181755 -1.623089,0.529837 -3.056156,1.657317 -3.951715,3.109053 -0.743199,1.204755 -0.89343,1.820115 -0.834366,3.417631 0.03683,0.996038 0.101516,1.483761 0.26451,1.99424 0.597317,1.87073 1.579697,3.117421 3.444594,4.371364 0.487242,0.327618 0.954228,0.69323 1.037747,0.812469 0.215024,0.30699 0.19286,1.022475 -0.04369,1.410467 -0.205985,0.337852 -0.690505,0.59753 -1.114906,0.59753 -0.389232,0 -1.40675,-0.526142 -2.25799,-1.167571 -2.300054,-1.733143 -3.811881,-4.498099 -4.024548,-7.360429 -0.04618,-0.621605 -0.102269,-0.868405 -0.206425,-0.908374 -0.371074,-0.142395 -2.960762,0.88264 -4.47967,1.773114 -2.959606,1.735098 -5.418665,4.640363 -6.794578,8.027482 -0.922946,2.272039 -1.215362,4.060415 -1.24265,7.599888 l -0.01935,2.509901 -0.668185,0.284377 c -1.260352,0.536404 -2.735712,0.336907 -3.846593,-0.520131 -1.016443,-0.78418 -1.445982,-1.714109 -1.451749,-3.142959 -0.0048,-1.198886 0.197484,-1.579528 1.76237,-3.315646 0.681778,-0.756379 1.388736,-1.621075 1.571018,-1.921545 0.323369,-0.533034 0.332205,-0.575399 0.363651,-1.743621 0.03153,-1.171467 0.02584,-1.210305 -0.264013,-1.79907 -0.40169,-0.815947 -0.946276,-1.408345 -1.619661,-1.761856 -0.781948,-0.410505 -1.458487,-0.552231 -2.637416,-0.552501 -1.124679,-2.9e-4 -1.43106,0.101415 -1.867086,0.619603 -0.37558,0.446351 -0.41963,0.873639 -0.146611,1.422144 0.326431,0.655812 0.615476,0.786579 1.960514,0.886967 1.275161,0.09517 1.507698,0.216363 1.709865,0.891135 0.136189,0.454561 0.114664,0.489283 -1.125158,1.814971 -2.09628,2.241459 -2.540186,3.114864 -2.627543,5.169815 -0.07126,1.676411 0.16359,2.65704 0.951638,3.97353 0.860338,1.437257 2.847571,2.829453 4.450749,3.118064 0.88688,0.15966 2.539789,0.04527 3.407426,-0.235815 z"
     id="path3949" />
  <path
     style="fill:#ed6d91;fill-opacity:1;stroke:#ed6d91;stroke-width:0.0965347;stroke-opacity:1"
     d="m 48.772833,38.112679 c -0.299852,-0.253469 -0.557113,-0.812384 -0.55658,-1.209207 4.91e-4,-0.364969 0.315423,-0.854706 0.666319,-1.036161 0.875866,-0.452928 1.886472,0.07107 1.945848,1.008927 0.03347,0.528641 -0.01896,0.692623 -0.329973,1.031993 -0.29043,0.316914 -0.382655,0.35723 -0.892945,0.390345 -0.485547,0.03151 -0.607752,0.0042 -0.832669,-0.185897 z"
     id="path3951" />
</svg>
