<?xml version="1.0" encoding="UTF-8" standalone="no"?>
<svg
   xmlns:dc="http://purl.org/dc/elements/1.1/"
   xmlns:cc="http://creativecommons.org/ns#"
   xmlns:rdf="http://www.w3.org/1999/02/22-rdf-syntax-ns#"
   xmlns:svg="http://www.w3.org/2000/svg"
   xmlns="http://www.w3.org/2000/svg"
   xmlns:sodipodi="http://sodipodi.sourceforge.net/DTD/sodipodi-0.dtd"
   xmlns:inkscape="http://www.inkscape.org/namespaces/inkscape"
   id="Layer_2"
   data-name="Layer 2"
   viewBox="0 0 73.36 78"
   version="1.1"
   sodipodi:docname="icons-advanced-technologies-for-personalised-oncology CC.svg"
   inkscape:version="1.0.2-2 (e86c870879, 2021-01-15)">
  <metadata
     id="metadata6483">
    <rdf:RDF>
      <cc:Work
         rdf:about="">
        <dc:format>image/svg+xml</dc:format>
        <dc:type
           rdf:resource="http://purl.org/dc/dcmitype/StillImage" />
        <dc:title></dc:title>
      </cc:Work>
    </rdf:RDF>
  </metadata>
  <sodipodi:namedview
     pagecolor="#ffffff"
     bordercolor="#666666"
     borderopacity="1"
     objecttolerance="10"
     gridtolerance="10"
     guidetolerance="10"
     inkscape:pageopacity="0"
     inkscape:pageshadow="2"
     inkscape:window-width="1920"
     inkscape:window-height="1001"
     id="namedview6481"
     showgrid="false"
     inkscape:zoom="10.641026"
     inkscape:cx="36.68"
     inkscape:cy="38.812048"
     inkscape:window-x="-9"
     inkscape:window-y="-9"
     inkscape:window-maximized="1"
     inkscape:current-layer="Layer_2" />
  <defs
     id="defs6471">
    <style
       id="style6466">
      .cls-1 {
        fill: #fff;
      }

      .cls-2 {
        fill: #fcc75f;
      }

      .cls-3 {
        clip-path: url(#clippath);
      }

      .cls-4 {
        fill: none;
      }
    </style>
    <clipPath
       id="clippath">
      <rect
         class="cls-4"
         x="17"
         y="19"
         width="40.19"
         height="40.19"
         id="rect6468" />
    </clipPath>
  </defs>
  <g
     id="Layer_1-2"
     data-name="Layer 1">
    <rect
       class="cls-2"
       x="0"
       y="0"
       width="73.36"
       height="78"
       rx="36.68"
       ry="36.68"
       id="rect6473" />
    <g
       class="cls-3"
       clip-path="url(#clippath)"
       id="g6477">
      <path
         class="cls-1"
         d="m25.6,27.6l-.03.03-2.68-2.68c-1.27,1.28-2.33,2.68-3.19,4.17l3.28,1.89c-.71,1.23-1.26,2.56-1.62,3.93l-3.67-.96c-.45,1.7-.69,3.45-.69,5.2l3.8-.02c0,1.43.18,2.85.55,4.22l-3.67.99c.45,1.68,1.11,3.3,2,4.84l3.29-1.91c.7,1.22,1.57,2.34,2.57,3.34l.02.02-2.69,2.69c1.27,1.27,2.67,2.32,4.16,3.18l1.9-3.29c1.23.7,2.55,1.25,3.92,1.61l-.98,3.67c1.7.45,3.45.67,5.2.67v-3.8c1.43,0,2.85-.2,4.22-.57l.97,3.66c1.68-.45,3.31-1.13,4.85-2.02l-1.9-3.28c1.22-.71,2.35-1.58,3.36-2.59l2.69,2.67c1.28-1.28,2.34-2.69,3.21-4.18l-3.28-1.89c.71-1.23,1.26-2.55,1.63-3.93l3.66.97c.46-1.7.69-3.45.69-5.2h-3.8c0-1.42-.18-2.84-.55-4.21l3.67-.99c-.44-1.68-1.11-3.31-2-4.84l-3.29,1.91c-.71-1.22-1.57-2.35-2.58-3.36l-.18-.2,2.76-2.4.11-.11c-1.27-1.27-2.67-2.33-4.15-3.18l-1.91,3.29c-1.23-.71-2.55-1.25-3.92-1.61l.99-3.67c-1.7-.45-3.45-.68-5.19-.68v3.8c-1.43,0-2.85.19-4.23.56l-.97-3.66c-1.68.45-3.31,1.12-4.85,2.01l1.89,3.28c-1.23.71-2.36,1.59-3.38,2.6Zm18.14,4.85c3.65,3.65,3.64,9.59-.03,13.26-3.67,3.67-9.6,3.68-13.26.03-3.65-3.65-3.64-9.59.03-13.26,3.67-3.67,9.6-3.68,13.26-.03h0Z"
         id="path6475" />
    </g>
  </g>
  <path
     style="fill:#2b51a1;stroke:#2b51a1;stroke-width:0.0939759;fill-opacity:1;stroke-opacity:1"
     d="M 35.129398,77.937367 C 25.01141,77.45117 15.748762,73.041808 9.2024476,65.595181 4.068754,59.755452 1.0305903,52.777734 0.20049001,44.920482 c -0.17207925,-1.628804 -0.17207925,-10.21216 0,-11.840964 C 1.3769984,21.943365 7.1653359,12.305748 16.38146,6.1381068 23.700735,1.2398803 32.905438,-0.84733116 41.74843,0.38602283 44.093342,0.7130736 46.221336,1.2102664 48.388409,1.9374137 61.171822,6.2268044 70.569756,17.228766 72.802491,30.518459 c 0.433597,2.580863 0.481221,3.432481 0.479559,8.575517 -0.0017,5.227082 -0.06107,6.152621 -0.572733,8.927711 -2.228056,12.084143 -10.445018,22.3244 -21.706944,27.051932 -4.993747,2.096275 -10.641109,3.115152 -15.872975,2.863748 z m 1.998974,-20.63556 c 0.02392,-1.742321 0.03626,-1.856024 0.20149,-1.856024 0.486049,0 2.225568,-0.217654 3.010939,-0.376737 0.488681,-0.09899 0.903177,-0.165309 0.921103,-0.147384 0.01792,0.01793 0.24271,0.827711 0.499524,1.799525 0.256813,0.971813 0.476654,1.776392 0.488536,1.787953 0.01188,0.01156 0.520887,-0.142998 1.131123,-0.343465 1.097535,-0.360546 3.5524,-1.474435 3.670461,-1.665462 0.03361,-0.05438 -0.340942,-0.793441 -0.832331,-1.642365 -0.491389,-0.848924 -0.892139,-1.581968 -0.890555,-1.628987 0.0016,-0.04702 0.384162,-0.339222 0.850175,-0.649343 0.466014,-0.31012 1.194207,-0.866553 1.618206,-1.236517 l 0.770909,-0.672662 1.346026,1.330493 1.346027,1.330493 0.474597,-0.516867 c 1.064634,-1.159457 2.71081,-3.410873 2.704493,-3.698839 -0.0013,-0.05895 -0.597806,-0.445499 -1.325586,-0.858992 -0.727778,-0.413494 -1.446171,-0.825517 -1.596427,-0.915607 l -0.273191,-0.163798 0.476366,-0.949272 c 0.262002,-0.5221 0.617905,-1.371138 0.790895,-1.886752 0.17299,-0.515613 0.334703,-0.957655 0.359362,-0.982315 0.0346,-0.0346 2.547107,0.592617 3.469036,0.866005 0.122921,0.03645 0.184702,-0.04548 0.269108,-0.35686 0.2561,-0.944774 0.478247,-2.462292 0.530345,-3.622847 L 57.194899,39 h -1.873466 -1.873466 l -0.115489,-1.292169 c -0.06352,-0.710692 -0.193428,-1.64469 -0.288687,-2.07555 -0.121059,-0.54756 -0.141859,-0.794063 -0.0691,-0.818868 0.05726,-0.01952 0.844161,-0.231878 1.748679,-0.47191 0.904518,-0.240033 1.679649,-0.469059 1.722514,-0.508948 0.207054,-0.192676 -1.750954,-4.986431 -1.984251,-4.858005 -0.03695,0.02034 -0.777583,0.449795 -1.645854,0.954347 -0.868271,0.504552 -1.5914,0.901807 -1.606952,0.882789 -0.01555,-0.01902 -0.247122,-0.361949 -0.514598,-0.762069 -0.578574,-0.865493 -1.19194,-1.642472 -1.786289,-2.262778 l -0.433968,-0.452919 0.24707,-0.204912 c 0.135889,-0.112702 0.784155,-0.670092 1.440592,-1.238647 l 1.19352,-1.033734 -0.667191,-0.636714 C 49.946968,23.512769 48.31121,22.271605 47.59439,21.872604 l -0.464802,-0.25872 -0.303246,0.540648 c -0.166785,0.297356 -0.590843,1.029817 -0.942351,1.627689 l -0.639106,1.087039 -0.875818,-0.430104 c -0.4817,-0.236557 -1.352806,-0.593371 -1.935792,-0.792921 -0.844778,-0.289158 -1.050771,-0.393911 -1.01464,-0.515972 0.398773,-1.347173 0.899778,-3.432135 0.838685,-3.49023 -0.227563,-0.216393 -3.193999,-0.6569 -4.423654,-0.6569 H 37.0559 v 1.865647 1.865647 l -0.916265,0.06324 c -0.938739,0.06479 -2.26182,0.266331 -2.836547,0.43208 -0.17748,0.05119 -0.338598,0.07716 -0.358039,0.05771 -0.01944,-0.01944 -0.248533,-0.832783 -0.509093,-1.807428 -0.26056,-0.974646 -0.485004,-1.784089 -0.498765,-1.798766 -0.01376,-0.01468 -0.548043,0.145063 -1.187295,0.354975 -1.182328,0.388241 -3.655442,1.52718 -3.655442,1.683434 0,0.04722 0.380994,0.742693 0.846653,1.545501 0.46566,0.802807 0.868659,1.516992 0.895553,1.587078 0.03154,0.08219 -0.277379,0.349269 -0.870147,0.752298 -0.505476,0.34368 -1.256819,0.923124 -1.669651,1.287655 l -0.750604,0.662785 -1.319066,-1.316712 -1.319066,-1.316712 -0.475237,0.494395 c -0.261379,0.271918 -0.668892,0.727079 -0.905583,1.011469 -0.575643,0.691648 -1.867239,2.632418 -1.811699,2.722283 0.02432,0.03934 0.755799,0.476855 1.625518,0.97225 l 1.58131,0.900718 -0.486911,0.988998 c -0.267802,0.54395 -0.626979,1.416658 -0.798171,1.939352 -0.299477,0.914383 -0.320362,0.948386 -0.551777,0.898355 -0.132286,-0.0286 -0.949375,-0.238851 -1.815755,-0.467227 -0.86638,-0.228375 -1.594288,-0.384401 -1.617573,-0.346724 -0.110023,0.178022 -0.518552,2.489417 -0.565411,3.199019 -0.02901,0.439337 -0.07396,1.063102 -0.09988,1.386144 l -0.04713,0.58735 h 1.915159 1.915157 l 0.05466,1.057229 c 0.03006,0.581476 0.144489,1.516466 0.254282,2.077756 0.109792,0.56129 0.186631,1.030755 0.170751,1.043257 -0.01588,0.0125 -0.790075,0.224724 -1.720436,0.471608 -0.930362,0.246885 -1.730389,0.48441 -1.777837,0.527834 -0.163424,0.149564 0.663181,2.478266 1.381163,3.890991 0.563848,1.109449 0.360364,1.105596 2.182216,0.04132 1.46566,-0.856194 1.607557,-0.919717 1.718272,-0.769222 0.06638,0.09022 0.382204,0.538896 0.701843,0.997052 0.319638,0.458155 0.853686,1.127361 1.186772,1.487125 l 0.605611,0.654117 -1.354442,1.360316 -1.354441,1.360316 0.422891,0.374172 c 1.247996,1.104217 2.494817,2.047003 3.385108,2.559656 l 0.424868,0.244649 0.937783,-1.639328 c 0.515781,-0.90163 0.958928,-1.627386 0.984771,-1.612791 0.568452,0.321045 2.066038,0.976413 2.836297,1.241212 0.602623,0.207168 0.989051,0.388347 0.966943,0.453358 -0.101422,0.298243 -0.889987,3.331369 -0.889987,3.423236 0,0.282213 2.879261,0.763938 4.416868,0.738979 l 0.798795,-0.01297 z"
     id="path7046" />
  <path
     style="fill:#2b51a1;fill-opacity:1;stroke:#2b51a1;stroke-width:0.0939759;stroke-opacity:1"
     d="m 35.08241,48.221153 c -6.405317,-1.396992 -9.373199,-8.783285 -5.744208,-14.295852 0.461125,-0.700464 1.626031,-1.908457 2.314087,-2.399679 0.779325,-0.55638 1.938741,-1.11895 2.927047,-1.420256 0.762295,-0.232401 0.969754,-0.254251 2.476568,-0.260833 1.440271,-0.0063 1.743813,0.01983 2.443373,0.21026 4.898024,1.333309 7.829607,6.231955 6.674872,11.153641 -0.640963,2.731896 -2.466777,5.002738 -5.030293,6.25639 -1.376008,0.672916 -2.15637,0.854383 -3.853012,0.895982 -1.120449,0.02747 -1.573513,-0.0012 -2.208434,-0.139653 z"
     id="path7048" />
</svg>
