<?xml version="1.0" encoding="UTF-8" standalone="no"?>
<svg
   xmlns:dc="http://purl.org/dc/elements/1.1/"
   xmlns:cc="http://creativecommons.org/ns#"
   xmlns:rdf="http://www.w3.org/1999/02/22-rdf-syntax-ns#"
   xmlns:svg="http://www.w3.org/2000/svg"
   xmlns="http://www.w3.org/2000/svg"
   xmlns:sodipodi="http://sodipodi.sourceforge.net/DTD/sodipodi-0.dtd"
   xmlns:inkscape="http://www.inkscape.org/namespaces/inkscape"
   id="Layer_2"
   data-name="Layer 2"
   viewBox="0 0 73.36 79"
   version="1.1"
   sodipodi:docname="icons-new-therapeutics CC.svg"
   inkscape:version="1.0.2-2 (e86c870879, 2021-01-15)">
  <metadata
     id="metadata904">
    <rdf:RDF>
      <cc:Work
         rdf:about="">
        <dc:format>image/svg+xml</dc:format>
        <dc:type
           rdf:resource="http://purl.org/dc/dcmitype/StillImage" />
        <dc:title></dc:title>
      </cc:Work>
    </rdf:RDF>
  </metadata>
  <sodipodi:namedview
     pagecolor="#ffffff"
     bordercolor="#666666"
     borderopacity="1"
     objecttolerance="10"
     gridtolerance="10"
     guidetolerance="10"
     inkscape:pageopacity="0"
     inkscape:pageshadow="2"
     inkscape:window-width="1920"
     inkscape:window-height="1001"
     id="namedview902"
     showgrid="false"
     inkscape:zoom="10.506329"
     inkscape:cx="36.68"
     inkscape:cy="39.309639"
     inkscape:window-x="-9"
     inkscape:window-y="-9"
     inkscape:window-maximized="1"
     inkscape:current-layer="Layer_2" />
  <defs
     id="defs884">
    <style
       id="style879">
      .cls-1 {
        fill: #fff;
      }

      .cls-2 {
        fill: #fcc75f;
      }

      .cls-3 {
        clip-path: url(#clippath);
      }

      .cls-4 {
        fill: none;
      }
    </style>
    <clipPath
       id="clippath">
      <rect
         class="cls-4"
         x="27.33"
         y="9"
         width="24"
         height="70"
         id="rect881" />
    </clipPath>
  </defs>
  <g
     id="Layer_1-2"
     data-name="Layer 1">
    <rect
       class="cls-2"
       x="0"
       y="0"
       width="73.36"
       height="78"
       rx="36.68"
       ry="36.68"
       id="rect886" />
    <g
       class="cls-3"
       clip-path="url(#clippath)"
       id="g898">
      <g
         id="g896">
        <path
           class="cls-1"
           d="m37.87,40.81h-4.79v2.34h4.79v-2.34Z"
           id="path888" />
        <path
           class="cls-1"
           d="m42.74,9h-14.1c-.72,0-1.31.59-1.31,1.31v15.44c0,.72.59,1.31,1.31,1.31h14.1c.72,0,1.31-.59,1.31-1.31v-15.44c0-.72-.59-1.31-1.31-1.31Z"
           id="path890" />
        <path
           class="cls-1"
           d="m37.91,39.15l6.14-7.71v-2.45h-16.72v2.45l6.14,7.71h4.45Z"
           id="path892" />
        <path
           class="cls-1"
           d="m51.33,79v-15.86c0-.21.02-2.12-1.33-3.51-.59-.61-1.67-1.34-3.46-1.34s-2.9.74-3.48,1.36c-1.22,1.3-1.23,3.01-1.21,3.38v6.12s.07,1.08-.55,1.74c-.39.42-1.04.63-1.93.63s-1.53-.22-1.94-.64c-.65-.68-.6-1.79-.6-1.79v-4.91h2.96v-12.08h-2.95v-6.28s-2.87,0-2.87,0v6.28h-2.93v12.08h2.93v4.77c-.02.43-.03,2.39,1.35,3.88.67.72,1.91,1.57,4.06,1.57,1.74,0,3.1-.53,4.06-1.58,1.34-1.47,1.32-3.39,1.3-3.84v-6.06c0-.23.05-.91.44-1.31.28-.29.74-.44,1.38-.44s1.09.15,1.39.45c.44.44.53,1.19.53,1.47v15.9h2.88Z"
           id="path894" />
      </g>
    </g>
  </g>
  <path
     style="fill:#00ff00;fill-opacity:0;stroke-width:0.0951807"
     d="M 34.300482,77.896573 C 34.117259,77.87557 33.474789,77.812142 32.872771,77.75562 23.608732,76.885846 14.639024,72.134443 8.5965307,64.896091 3.929786,59.30576 1.157897,52.841311 0.25773165,45.448795 0.10998692,44.235457 0.083818,43.277927 0.08344787,39.071687 0.08298749,33.83976 0.12479324,33.093068 0.5648974,30.472509 2.9482983,16.280776 13.620497,4.6952473 27.542651,1.1859909 30.687374,0.39332331 33.320297,0.06895342 36.63241,0.06615381 39.122275,0.06404921 40.417354,0.16426694 42.676386,0.53385744 58.09007,3.0556244 70.214705,15.107772 72.795103,30.472509 c 0.440014,2.620021 0.481895,3.367638 0.481718,8.599178 -1.91e-4,5.342341 -0.04967,6.107839 -0.581468,8.994578 -1.860117,10.097147 -7.89145,18.93564 -16.646076,24.393649 -1.125263,0.701537 -4.426524,2.447315 -4.627866,2.447315 -0.04714,0 -0.08358,-2.730223 -0.08358,-6.26193 0,-6.880377 0.0052,-6.809427 -0.586138,-7.989628 -1.567083,-3.127574 -6.706849,-3.209547 -8.346569,-0.133117 -0.542441,1.017724 -0.582406,1.390303 -0.583959,5.444207 -0.0016,4.110471 -0.03395,4.374776 -0.603473,4.92678 -0.829437,0.803922 -2.906221,0.784597 -3.725484,-0.03467 -0.559973,-0.559974 -0.621847,-0.954403 -0.621847,-3.964103 v -2.647785 h 1.475301 1.475301 V 58.155417 52.06385 H 38.345662 36.870361 V 48.922887 45.781923 H 35.39506 33.919758 v 3.140964 3.140963 h -1.476005 -1.476006 l 0.0245,6.067772 0.0245,6.067771 1.451506,0.02627 1.451506,0.02627 v 2.654209 c 0,1.926676 0.03793,2.852438 0.13837,3.377401 0.398968,2.085221 1.86446,3.573543 3.954401,4.016008 0.92356,0.195528 2.457917,0.128313 3.338191,-0.146234 1.634572,-0.509804 2.787723,-1.755174 3.231359,-3.489775 0.171326,-0.669878 0.188282,-1.061012 0.188282,-4.343259 0,-2.344852 0.03727,-3.755088 0.106499,-4.030033 0.20263,-0.804712 0.977454,-1.201188 2.058017,-1.053081 0.640847,0.08784 0.990624,0.328925 1.26199,0.869836 l 0.237952,0.474307 0.02683,6.728936 0.02683,6.728935 -0.788279,0.249947 c -2.010521,0.637492 -4.374019,1.138547 -6.737073,1.428243 -1.209306,0.148254 -5.844889,0.272924 -6.662651,0.179187 z m 3.595917,-35.898079 -0.02664,-1.213554 -2.403313,-0.02543 -2.403313,-0.02543 v 1.238984 1.238983 h 2.429952 2.429952 z m 3.106782,-6.678424 3.100916,-3.894388 V 30.180311 28.93494 h -8.375904 -8.375904 v 1.292272 1.292273 l 3.063332,3.847486 3.063331,3.847487 h 2.211656 2.211657 z m 2.412877,-8.429437 c 0.171247,-0.103555 0.396112,-0.363358 0.499699,-0.57734 0.183078,-0.378189 0.188282,-0.609571 0.18625,-8.282801 -0.002,-7.548779 -0.01,-7.911147 -0.182883,-8.2919507 -0.358867,-0.7904318 0.155721,-0.743963 -8.238521,-0.743963 -7.10561,0 -7.436814,0.0077 -7.720533,0.1794672 -0.645621,0.3908681 -0.607781,-0.1631048 -0.607781,8.8978705 v 8.19134 l 0.295213,0.336229 c 0.162368,0.184925 0.430064,0.37582 0.59488,0.424208 0.174133,0.05112 3.349908,0.08112 7.580992,0.0716 7.070805,-0.0159 7.290327,-0.02182 7.592684,-0.204661 z"
     id="path1467" />
  <path
     style="fill:#00ff00;fill-opacity:0;stroke-width:0.0951807"
     d="M 34.300482,77.896573 C 34.117259,77.87557 33.474789,77.812142 32.872771,77.75562 23.608732,76.885846 14.639024,72.134443 8.5965307,64.896091 3.929786,59.30576 1.157897,52.841311 0.25773165,45.448795 0.10998692,44.235457 0.083818,43.277927 0.08344787,39.071687 0.08298749,33.83976 0.12479324,33.093068 0.5648974,30.472509 2.9482983,16.280776 13.620497,4.6952473 27.542651,1.1859909 30.687374,0.39332331 33.320297,0.06895342 36.63241,0.06615381 39.122275,0.06404921 40.417354,0.16426694 42.676386,0.53385744 58.09007,3.0556244 70.214705,15.107772 72.795103,30.472509 c 0.440014,2.620021 0.481895,3.367638 0.481718,8.599178 -1.91e-4,5.342341 -0.04967,6.107839 -0.581468,8.994578 -1.860117,10.097147 -7.89145,18.93564 -16.646076,24.393649 -1.125263,0.701537 -4.426524,2.447315 -4.627866,2.447315 -0.04714,0 -0.08358,-2.730223 -0.08358,-6.26193 0,-6.880377 0.0052,-6.809427 -0.586138,-7.989628 -1.567083,-3.127574 -6.706849,-3.209547 -8.346569,-0.133117 -0.542441,1.017724 -0.582406,1.390303 -0.583959,5.444207 -0.0016,4.110471 -0.03395,4.374776 -0.603473,4.92678 -0.829437,0.803922 -2.906221,0.784597 -3.725484,-0.03467 -0.559973,-0.559974 -0.621847,-0.954403 -0.621847,-3.964103 v -2.647785 h 1.475301 1.475301 V 58.155417 52.06385 H 38.345662 36.870361 V 48.922887 45.781923 H 35.39506 33.919758 v 3.140964 3.140963 h -1.476005 -1.476006 l 0.0245,6.067772 0.0245,6.067771 1.451506,0.02627 1.451506,0.02627 v 2.654209 c 0,1.926676 0.03793,2.852438 0.13837,3.377401 0.398968,2.085221 1.86446,3.573543 3.954401,4.016008 0.92356,0.195528 2.457917,0.128313 3.338191,-0.146234 1.634572,-0.509804 2.787723,-1.755174 3.231359,-3.489775 0.171326,-0.669878 0.188282,-1.061012 0.188282,-4.343259 0,-2.344852 0.03727,-3.755088 0.106499,-4.030033 0.20263,-0.804712 0.977454,-1.201188 2.058017,-1.053081 0.640847,0.08784 0.990624,0.328925 1.26199,0.869836 l 0.237952,0.474307 0.02683,6.728936 0.02683,6.728935 -0.788279,0.249947 c -2.010521,0.637492 -4.374019,1.138547 -6.737073,1.428243 -1.209306,0.148254 -5.844889,0.272924 -6.662651,0.179187 z m 3.595917,-35.898079 -0.02664,-1.213554 -2.403313,-0.02543 -2.403313,-0.02543 v 1.238984 1.238983 h 2.429952 2.429952 z m 3.106782,-6.678424 3.100916,-3.894388 V 30.180311 28.93494 h -8.375904 -8.375904 v 1.292272 1.292273 l 3.063332,3.847486 3.063331,3.847487 h 2.211656 2.211657 z m 2.412877,-8.429437 c 0.171247,-0.103555 0.396112,-0.363358 0.499699,-0.57734 0.183078,-0.378189 0.188282,-0.609571 0.18625,-8.282801 -0.002,-7.548779 -0.01,-7.911147 -0.182883,-8.2919507 -0.358867,-0.7904318 0.155721,-0.743963 -8.238521,-0.743963 -7.10561,0 -7.436814,0.0077 -7.720533,0.1794672 -0.645621,0.3908681 -0.607781,-0.1631048 -0.607781,8.8978705 v 8.19134 l 0.295213,0.336229 c 0.162368,0.184925 0.430064,0.37582 0.59488,0.424208 0.174133,0.05112 3.349908,0.08112 7.580992,0.0716 7.070805,-0.0159 7.290327,-0.02182 7.592684,-0.204661 z"
     id="path1469" />
  <path
     style="fill:#00ff00;fill-opacity:0;stroke-width:0.0951807"
     d="M 34.300482,77.896573 C 34.117259,77.87557 33.474789,77.812142 32.872771,77.75562 23.608732,76.885846 14.639024,72.134443 8.5965307,64.896091 3.929786,59.30576 1.157897,52.841311 0.25773165,45.448795 0.10998692,44.235457 0.083818,43.277927 0.08344787,39.071687 0.08298749,33.83976 0.12479324,33.093068 0.5648974,30.472509 2.9482983,16.280776 13.620497,4.6952473 27.542651,1.1859909 30.687374,0.39332331 33.320297,0.06895342 36.63241,0.06615381 39.122275,0.06404921 40.417354,0.16426694 42.676386,0.53385744 58.09007,3.0556244 70.214705,15.107772 72.795103,30.472509 c 0.440014,2.620021 0.481895,3.367638 0.481718,8.599178 -1.91e-4,5.342341 -0.04967,6.107839 -0.581468,8.994578 -1.860117,10.097147 -7.89145,18.93564 -16.646076,24.393649 -1.125263,0.701537 -4.426524,2.447315 -4.627866,2.447315 -0.04714,0 -0.08358,-2.730223 -0.08358,-6.26193 0,-6.880377 0.0052,-6.809427 -0.586138,-7.989628 -1.567083,-3.127574 -6.706849,-3.209547 -8.346569,-0.133117 -0.542441,1.017724 -0.582406,1.390303 -0.583959,5.444207 -0.0016,4.110471 -0.03395,4.374776 -0.603473,4.92678 -0.829437,0.803922 -2.906221,0.784597 -3.725484,-0.03467 -0.559973,-0.559974 -0.621847,-0.954403 -0.621847,-3.964103 v -2.647785 h 1.475301 1.475301 V 58.155417 52.06385 H 38.345662 36.870361 V 48.922887 45.781923 H 35.39506 33.919758 v 3.140964 3.140963 h -1.476005 -1.476006 l 0.0245,6.067772 0.0245,6.067771 1.451506,0.02627 1.451506,0.02627 v 2.654209 c 0,1.926676 0.03793,2.852438 0.13837,3.377401 0.398968,2.085221 1.86446,3.573543 3.954401,4.016008 0.92356,0.195528 2.457917,0.128313 3.338191,-0.146234 1.634572,-0.509804 2.787723,-1.755174 3.231359,-3.489775 0.171326,-0.669878 0.188282,-1.061012 0.188282,-4.343259 0,-2.344852 0.03727,-3.755088 0.106499,-4.030033 0.20263,-0.804712 0.977454,-1.201188 2.058017,-1.053081 0.640847,0.08784 0.990624,0.328925 1.26199,0.869836 l 0.237952,0.474307 0.02683,6.728936 0.02683,6.728935 -0.788279,0.249947 c -2.010521,0.637492 -4.374019,1.138547 -6.737073,1.428243 -1.209306,0.148254 -5.844889,0.272924 -6.662651,0.179187 z m 3.595917,-35.898079 -0.02664,-1.213554 -2.403313,-0.02543 -2.403313,-0.02543 v 1.238984 1.238983 h 2.429952 2.429952 z m 3.106782,-6.678424 3.100916,-3.894388 V 30.180311 28.93494 h -8.375904 -8.375904 v 1.292272 1.292273 l 3.063332,3.847486 3.063331,3.847487 h 2.211656 2.211657 z m 2.412877,-8.429437 c 0.171247,-0.103555 0.396112,-0.363358 0.499699,-0.57734 0.183078,-0.378189 0.188282,-0.609571 0.18625,-8.282801 -0.002,-7.548779 -0.01,-7.911147 -0.182883,-8.2919507 -0.358867,-0.7904318 0.155721,-0.743963 -8.238521,-0.743963 -7.10561,0 -7.436814,0.0077 -7.720533,0.1794672 -0.645621,0.3908681 -0.607781,-0.1631048 -0.607781,8.8978705 v 8.19134 l 0.295213,0.336229 c 0.162368,0.184925 0.430064,0.37582 0.59488,0.424208 0.174133,0.05112 3.349908,0.08112 7.580992,0.0716 7.070805,-0.0159 7.290327,-0.02182 7.592684,-0.204661 z"
     id="path1471" />
  <path
     style="fill:#80ff4d;fill-opacity:0;stroke-width:0.0951807"
     d="M 34.300482,77.896573 C 34.117259,77.87557 33.474789,77.812142 32.872771,77.75562 23.608732,76.885846 14.639024,72.134443 8.5965307,64.896091 3.929786,59.30576 1.157897,52.841311 0.25773165,45.448795 0.10998692,44.235457 0.083818,43.277927 0.08344787,39.071687 0.08298749,33.83976 0.12479324,33.093068 0.5648974,30.472509 2.9482983,16.280776 13.620497,4.6952473 27.542651,1.1859909 30.687374,0.39332331 33.320297,0.06895342 36.63241,0.06615381 39.122275,0.06404921 40.417354,0.16426694 42.676386,0.53385744 58.09007,3.0556244 70.214705,15.107772 72.795103,30.472509 c 0.440014,2.620021 0.481895,3.367638 0.481718,8.599178 -1.91e-4,5.342341 -0.04967,6.107839 -0.581468,8.994578 -1.860117,10.097147 -7.89145,18.93564 -16.646076,24.393649 -1.125263,0.701537 -4.426524,2.447315 -4.627866,2.447315 -0.04714,0 -0.08358,-2.730223 -0.08358,-6.26193 0,-6.880377 0.0052,-6.809427 -0.586138,-7.989628 -1.567083,-3.127574 -6.706849,-3.209547 -8.346569,-0.133117 -0.542441,1.017724 -0.582406,1.390303 -0.583959,5.444207 -0.0016,4.110471 -0.03395,4.374776 -0.603473,4.92678 -0.829437,0.803922 -2.906221,0.784597 -3.725484,-0.03467 -0.559973,-0.559974 -0.621847,-0.954403 -0.621847,-3.964103 v -2.647785 h 1.475301 1.475301 V 58.155417 52.06385 H 38.345662 36.870361 V 48.922887 45.781923 H 35.39506 33.919758 v 3.140964 3.140963 h -1.476005 -1.476006 l 0.0245,6.067772 0.0245,6.067771 1.451506,0.02627 1.451506,0.02627 v 2.654209 c 0,1.926676 0.03793,2.852438 0.13837,3.377401 0.398968,2.085221 1.86446,3.573543 3.954401,4.016008 0.92356,0.195528 2.457917,0.128313 3.338191,-0.146234 1.634572,-0.509804 2.787723,-1.755174 3.231359,-3.489775 0.171326,-0.669878 0.188282,-1.061012 0.188282,-4.343259 0,-2.344852 0.03727,-3.755088 0.106499,-4.030033 0.20263,-0.804712 0.977454,-1.201188 2.058017,-1.053081 0.640847,0.08784 0.990624,0.328925 1.26199,0.869836 l 0.237952,0.474307 0.02683,6.728936 0.02683,6.728935 -0.788279,0.249947 c -2.010521,0.637492 -4.374019,1.138547 -6.737073,1.428243 -1.209306,0.148254 -5.844889,0.272924 -6.662651,0.179187 z m 3.595917,-35.898079 -0.02664,-1.213554 -2.403313,-0.02543 -2.403313,-0.02543 v 1.238984 1.238983 h 2.429952 2.429952 z m 3.106782,-6.678424 3.100916,-3.894388 V 30.180311 28.93494 h -8.375904 -8.375904 v 1.292272 1.292273 l 3.063332,3.847486 3.063331,3.847487 h 2.211656 2.211657 z m 2.412877,-8.429437 c 0.171247,-0.103555 0.396112,-0.363358 0.499699,-0.57734 0.183078,-0.378189 0.188282,-0.609571 0.18625,-8.282801 -0.002,-7.548779 -0.01,-7.911147 -0.182883,-8.2919507 -0.358867,-0.7904318 0.155721,-0.743963 -8.238521,-0.743963 -7.10561,0 -7.436814,0.0077 -7.720533,0.1794672 -0.645621,0.3908681 -0.607781,-0.1631048 -0.607781,8.8978705 v 8.19134 l 0.295213,0.336229 c 0.162368,0.184925 0.430064,0.37582 0.59488,0.424208 0.174133,0.05112 3.349908,0.08112 7.580992,0.0716 7.070805,-0.0159 7.290327,-0.02182 7.592684,-0.204661 z"
     id="path1473" />
  <path
     style="fill:#80ff4d;fill-opacity:0;stroke-width:0.0951807"
     d="M 34.300482,77.896573 C 34.117259,77.87557 33.474789,77.812142 32.872771,77.75562 23.608732,76.885846 14.639024,72.134443 8.5965307,64.896091 3.929786,59.30576 1.157897,52.841311 0.25773165,45.448795 0.10998692,44.235457 0.083818,43.277927 0.08344787,39.071687 0.08298749,33.83976 0.12479324,33.093068 0.5648974,30.472509 2.9482983,16.280776 13.620497,4.6952473 27.542651,1.1859909 30.687374,0.39332331 33.320297,0.06895342 36.63241,0.06615381 39.122275,0.06404921 40.417354,0.16426694 42.676386,0.53385744 58.09007,3.0556244 70.214705,15.107772 72.795103,30.472509 c 0.440014,2.620021 0.481895,3.367638 0.481718,8.599178 -1.91e-4,5.342341 -0.04967,6.107839 -0.581468,8.994578 -1.860117,10.097147 -7.89145,18.93564 -16.646076,24.393649 -1.125263,0.701537 -4.426524,2.447315 -4.627866,2.447315 -0.04714,0 -0.08358,-2.730223 -0.08358,-6.26193 0,-6.880377 0.0052,-6.809427 -0.586138,-7.989628 -1.567083,-3.127574 -6.706849,-3.209547 -8.346569,-0.133117 -0.542441,1.017724 -0.582406,1.390303 -0.583959,5.444207 -0.0016,4.110471 -0.03395,4.374776 -0.603473,4.92678 -0.829437,0.803922 -2.906221,0.784597 -3.725484,-0.03467 -0.559973,-0.559974 -0.621847,-0.954403 -0.621847,-3.964103 v -2.647785 h 1.475301 1.475301 V 58.155417 52.06385 H 38.345662 36.870361 V 48.922887 45.781923 H 35.39506 33.919758 v 3.140964 3.140963 h -1.476005 -1.476006 l 0.0245,6.067772 0.0245,6.067771 1.451506,0.02627 1.451506,0.02627 v 2.654209 c 0,1.926676 0.03793,2.852438 0.13837,3.377401 0.398968,2.085221 1.86446,3.573543 3.954401,4.016008 0.92356,0.195528 2.457917,0.128313 3.338191,-0.146234 1.634572,-0.509804 2.787723,-1.755174 3.231359,-3.489775 0.171326,-0.669878 0.188282,-1.061012 0.188282,-4.343259 0,-2.344852 0.03727,-3.755088 0.106499,-4.030033 0.20263,-0.804712 0.977454,-1.201188 2.058017,-1.053081 0.640847,0.08784 0.990624,0.328925 1.26199,0.869836 l 0.237952,0.474307 0.02683,6.728936 0.02683,6.728935 -0.788279,0.249947 c -2.010521,0.637492 -4.374019,1.138547 -6.737073,1.428243 -1.209306,0.148254 -5.844889,0.272924 -6.662651,0.179187 z m 3.595917,-35.898079 -0.02664,-1.213554 -2.403313,-0.02543 -2.403313,-0.02543 v 1.238984 1.238983 h 2.429952 2.429952 z m 3.106782,-6.678424 3.100916,-3.894388 V 30.180311 28.93494 h -8.375904 -8.375904 v 1.292272 1.292273 l 3.063332,3.847486 3.063331,3.847487 h 2.211656 2.211657 z m 2.412877,-8.429437 c 0.171247,-0.103555 0.396112,-0.363358 0.499699,-0.57734 0.183078,-0.378189 0.188282,-0.609571 0.18625,-8.282801 -0.002,-7.548779 -0.01,-7.911147 -0.182883,-8.2919507 -0.358867,-0.7904318 0.155721,-0.743963 -8.238521,-0.743963 -7.10561,0 -7.436814,0.0077 -7.720533,0.1794672 -0.645621,0.3908681 -0.607781,-0.1631048 -0.607781,8.8978705 v 8.19134 l 0.295213,0.336229 c 0.162368,0.184925 0.430064,0.37582 0.59488,0.424208 0.174133,0.05112 3.349908,0.08112 7.580992,0.0716 7.070805,-0.0159 7.290327,-0.02182 7.592684,-0.204661 z"
     id="path1475" />
  <path
     style="fill:#80ff4d;fill-opacity:0;stroke-width:0.0951807"
     d="M 34.300482,77.896573 C 34.117259,77.87557 33.474789,77.812142 32.872771,77.75562 23.608732,76.885846 14.639024,72.134443 8.5965307,64.896091 3.929786,59.30576 1.157897,52.841311 0.25773165,45.448795 0.10998692,44.235457 0.083818,43.277927 0.08344787,39.071687 0.08298749,33.83976 0.12479324,33.093068 0.5648974,30.472509 2.9482983,16.280776 13.620497,4.6952473 27.542651,1.1859909 30.687374,0.39332331 33.320297,0.06895342 36.63241,0.06615381 39.122275,0.06404921 40.417354,0.16426694 42.676386,0.53385744 58.09007,3.0556244 70.214705,15.107772 72.795103,30.472509 c 0.440014,2.620021 0.481895,3.367638 0.481718,8.599178 -1.91e-4,5.342341 -0.04967,6.107839 -0.581468,8.994578 -1.860117,10.097147 -7.89145,18.93564 -16.646076,24.393649 -1.125263,0.701537 -4.426524,2.447315 -4.627866,2.447315 -0.04714,0 -0.08358,-2.730223 -0.08358,-6.26193 0,-6.880377 0.0052,-6.809427 -0.586138,-7.989628 -1.567083,-3.127574 -6.706849,-3.209547 -8.346569,-0.133117 -0.542441,1.017724 -0.582406,1.390303 -0.583959,5.444207 -0.0016,4.110471 -0.03395,4.374776 -0.603473,4.92678 -0.829437,0.803922 -2.906221,0.784597 -3.725484,-0.03467 -0.559973,-0.559974 -0.621847,-0.954403 -0.621847,-3.964103 v -2.647785 h 1.475301 1.475301 V 58.155417 52.06385 H 38.345662 36.870361 V 48.922887 45.781923 H 35.39506 33.919758 v 3.140964 3.140963 h -1.476005 -1.476006 l 0.0245,6.067772 0.0245,6.067771 1.451506,0.02627 1.451506,0.02627 v 2.654209 c 0,1.926676 0.03793,2.852438 0.13837,3.377401 0.398968,2.085221 1.86446,3.573543 3.954401,4.016008 0.92356,0.195528 2.457917,0.128313 3.338191,-0.146234 1.634572,-0.509804 2.787723,-1.755174 3.231359,-3.489775 0.171326,-0.669878 0.188282,-1.061012 0.188282,-4.343259 0,-2.344852 0.03727,-3.755088 0.106499,-4.030033 0.20263,-0.804712 0.977454,-1.201188 2.058017,-1.053081 0.640847,0.08784 0.990624,0.328925 1.26199,0.869836 l 0.237952,0.474307 0.02683,6.728936 0.02683,6.728935 -0.788279,0.249947 c -2.010521,0.637492 -4.374019,1.138547 -6.737073,1.428243 -1.209306,0.148254 -5.844889,0.272924 -6.662651,0.179187 z m 3.595917,-35.898079 -0.02664,-1.213554 -2.403313,-0.02543 -2.403313,-0.02543 v 1.238984 1.238983 h 2.429952 2.429952 z m 3.106782,-6.678424 3.100916,-3.894388 V 30.180311 28.93494 h -8.375904 -8.375904 v 1.292272 1.292273 l 3.063332,3.847486 3.063331,3.847487 h 2.211656 2.211657 z m 2.412877,-8.429437 c 0.171247,-0.103555 0.396112,-0.363358 0.499699,-0.57734 0.183078,-0.378189 0.188282,-0.609571 0.18625,-8.282801 -0.002,-7.548779 -0.01,-7.911147 -0.182883,-8.2919507 -0.358867,-0.7904318 0.155721,-0.743963 -8.238521,-0.743963 -7.10561,0 -7.436814,0.0077 -7.720533,0.1794672 -0.645621,0.3908681 -0.607781,-0.1631048 -0.607781,8.8978705 v 8.19134 l 0.295213,0.336229 c 0.162368,0.184925 0.430064,0.37582 0.59488,0.424208 0.174133,0.05112 3.349908,0.08112 7.580992,0.0716 7.070805,-0.0159 7.290327,-0.02182 7.592684,-0.204661 z"
     id="path1477" />
  <path
     style="fill:#80ff4d;fill-opacity:0;stroke-width:0.0951807"
     d="M 34.300482,77.896573 C 34.117259,77.87557 33.474789,77.812142 32.872771,77.75562 23.608732,76.885846 14.639024,72.134443 8.5965307,64.896091 3.929786,59.30576 1.157897,52.841311 0.25773165,45.448795 0.10998692,44.235457 0.083818,43.277927 0.08344787,39.071687 0.08298749,33.83976 0.12479324,33.093068 0.5648974,30.472509 2.9482983,16.280776 13.620497,4.6952473 27.542651,1.1859909 30.687374,0.39332331 33.320297,0.06895342 36.63241,0.06615381 39.122275,0.06404921 40.417354,0.16426694 42.676386,0.53385744 58.09007,3.0556244 70.214705,15.107772 72.795103,30.472509 c 0.440014,2.620021 0.481895,3.367638 0.481718,8.599178 -1.91e-4,5.342341 -0.04967,6.107839 -0.581468,8.994578 -1.860117,10.097147 -7.89145,18.93564 -16.646076,24.393649 -1.125263,0.701537 -4.426524,2.447315 -4.627866,2.447315 -0.04714,0 -0.08358,-2.730223 -0.08358,-6.26193 0,-6.880377 0.0052,-6.809427 -0.586138,-7.989628 -1.567083,-3.127574 -6.706849,-3.209547 -8.346569,-0.133117 -0.542441,1.017724 -0.582406,1.390303 -0.583959,5.444207 -0.0016,4.110471 -0.03395,4.374776 -0.603473,4.92678 -0.829437,0.803922 -2.906221,0.784597 -3.725484,-0.03467 -0.559973,-0.559974 -0.621847,-0.954403 -0.621847,-3.964103 v -2.647785 h 1.475301 1.475301 V 58.155417 52.06385 H 38.345662 36.870361 V 48.922887 45.781923 H 35.39506 33.919758 v 3.140964 3.140963 h -1.476005 -1.476006 l 0.0245,6.067772 0.0245,6.067771 1.451506,0.02627 1.451506,0.02627 v 2.654209 c 0,1.926676 0.03793,2.852438 0.13837,3.377401 0.398968,2.085221 1.86446,3.573543 3.954401,4.016008 0.92356,0.195528 2.457917,0.128313 3.338191,-0.146234 1.634572,-0.509804 2.787723,-1.755174 3.231359,-3.489775 0.171326,-0.669878 0.188282,-1.061012 0.188282,-4.343259 0,-2.344852 0.03727,-3.755088 0.106499,-4.030033 0.20263,-0.804712 0.977454,-1.201188 2.058017,-1.053081 0.640847,0.08784 0.990624,0.328925 1.26199,0.869836 l 0.237952,0.474307 0.02683,6.728936 0.02683,6.728935 -0.788279,0.249947 c -2.010521,0.637492 -4.374019,1.138547 -6.737073,1.428243 -1.209306,0.148254 -5.844889,0.272924 -6.662651,0.179187 z m 3.595917,-35.898079 -0.02664,-1.213554 -2.403313,-0.02543 -2.403313,-0.02543 v 1.238984 1.238983 h 2.429952 2.429952 z m 3.106782,-6.678424 3.100916,-3.894388 V 30.180311 28.93494 h -8.375904 -8.375904 v 1.292272 1.292273 l 3.063332,3.847486 3.063331,3.847487 h 2.211656 2.211657 z m 2.412877,-8.429437 c 0.171247,-0.103555 0.396112,-0.363358 0.499699,-0.57734 0.183078,-0.378189 0.188282,-0.609571 0.18625,-8.282801 -0.002,-7.548779 -0.01,-7.911147 -0.182883,-8.2919507 -0.358867,-0.7904318 0.155721,-0.743963 -8.238521,-0.743963 -7.10561,0 -7.436814,0.0077 -7.720533,0.1794672 -0.645621,0.3908681 -0.607781,-0.1631048 -0.607781,8.8978705 v 8.19134 l 0.295213,0.336229 c 0.162368,0.184925 0.430064,0.37582 0.59488,0.424208 0.174133,0.05112 3.349908,0.08112 7.580992,0.0716 7.070805,-0.0159 7.290327,-0.02182 7.592684,-0.204661 z"
     id="path1479" />
  <path
     style="fill:#80ff4d;fill-opacity:0;stroke-width:0.0951807"
     d="M 34.300482,77.896573 C 34.117259,77.87557 33.474789,77.812142 32.872771,77.75562 23.608732,76.885846 14.639024,72.134443 8.5965307,64.896091 3.929786,59.30576 1.157897,52.841311 0.25773165,45.448795 0.10998692,44.235457 0.083818,43.277927 0.08344787,39.071687 0.08298749,33.83976 0.12479324,33.093068 0.5648974,30.472509 2.9482983,16.280776 13.620497,4.6952473 27.542651,1.1859909 30.687374,0.39332331 33.320297,0.06895342 36.63241,0.06615381 39.122275,0.06404921 40.417354,0.16426694 42.676386,0.53385744 58.09007,3.0556244 70.214705,15.107772 72.795103,30.472509 c 0.440014,2.620021 0.481895,3.367638 0.481718,8.599178 -1.91e-4,5.342341 -0.04967,6.107839 -0.581468,8.994578 -1.860117,10.097147 -7.89145,18.93564 -16.646076,24.393649 -1.125263,0.701537 -4.426524,2.447315 -4.627866,2.447315 -0.04714,0 -0.08358,-2.730223 -0.08358,-6.26193 0,-6.880377 0.0052,-6.809427 -0.586138,-7.989628 -1.567083,-3.127574 -6.706849,-3.209547 -8.346569,-0.133117 -0.542441,1.017724 -0.582406,1.390303 -0.583959,5.444207 -0.0016,4.110471 -0.03395,4.374776 -0.603473,4.92678 -0.829437,0.803922 -2.906221,0.784597 -3.725484,-0.03467 -0.559973,-0.559974 -0.621847,-0.954403 -0.621847,-3.964103 v -2.647785 h 1.475301 1.475301 V 58.155417 52.06385 H 38.345662 36.870361 V 48.922887 45.781923 H 35.39506 33.919758 v 3.140964 3.140963 h -1.476005 -1.476006 l 0.0245,6.067772 0.0245,6.067771 1.451506,0.02627 1.451506,0.02627 v 2.654209 c 0,1.926676 0.03793,2.852438 0.13837,3.377401 0.398968,2.085221 1.86446,3.573543 3.954401,4.016008 0.92356,0.195528 2.457917,0.128313 3.338191,-0.146234 1.634572,-0.509804 2.787723,-1.755174 3.231359,-3.489775 0.171326,-0.669878 0.188282,-1.061012 0.188282,-4.343259 0,-2.344852 0.03727,-3.755088 0.106499,-4.030033 0.20263,-0.804712 0.977454,-1.201188 2.058017,-1.053081 0.640847,0.08784 0.990624,0.328925 1.26199,0.869836 l 0.237952,0.474307 0.02683,6.728936 0.02683,6.728935 -0.788279,0.249947 c -2.010521,0.637492 -4.374019,1.138547 -6.737073,1.428243 -1.209306,0.148254 -5.844889,0.272924 -6.662651,0.179187 z m 3.595917,-35.898079 -0.02664,-1.213554 -2.403313,-0.02543 -2.403313,-0.02543 v 1.238984 1.238983 h 2.429952 2.429952 z m 3.106782,-6.678424 3.100916,-3.894388 V 30.180311 28.93494 h -8.375904 -8.375904 v 1.292272 1.292273 l 3.063332,3.847486 3.063331,3.847487 h 2.211656 2.211657 z m 2.412877,-8.429437 c 0.171247,-0.103555 0.396112,-0.363358 0.499699,-0.57734 0.183078,-0.378189 0.188282,-0.609571 0.18625,-8.282801 -0.002,-7.548779 -0.01,-7.911147 -0.182883,-8.2919507 -0.358867,-0.7904318 0.155721,-0.743963 -8.238521,-0.743963 -7.10561,0 -7.436814,0.0077 -7.720533,0.1794672 -0.645621,0.3908681 -0.607781,-0.1631048 -0.607781,8.8978705 v 8.19134 l 0.295213,0.336229 c 0.162368,0.184925 0.430064,0.37582 0.59488,0.424208 0.174133,0.05112 3.349908,0.08112 7.580992,0.0716 7.070805,-0.0159 7.290327,-0.02182 7.592684,-0.204661 z"
     id="path1481" />
  <path
     style="fill:#80ff4d;fill-opacity:0;stroke-width:0.0951807"
     d="M 34.300482,77.896573 C 34.117259,77.87557 33.474789,77.812142 32.872771,77.75562 23.608732,76.885846 14.639024,72.134443 8.5965307,64.896091 3.929786,59.30576 1.157897,52.841311 0.25773165,45.448795 0.10998692,44.235457 0.083818,43.277927 0.08344787,39.071687 0.08298749,33.83976 0.12479324,33.093068 0.5648974,30.472509 2.9482983,16.280776 13.620497,4.6952473 27.542651,1.1859909 30.687374,0.39332331 33.320297,0.06895342 36.63241,0.06615381 39.122275,0.06404921 40.417354,0.16426694 42.676386,0.53385744 58.09007,3.0556244 70.214705,15.107772 72.795103,30.472509 c 0.440014,2.620021 0.481895,3.367638 0.481718,8.599178 -1.91e-4,5.342341 -0.04967,6.107839 -0.581468,8.994578 -1.860117,10.097147 -7.89145,18.93564 -16.646076,24.393649 -1.125263,0.701537 -4.426524,2.447315 -4.627866,2.447315 -0.04714,0 -0.08358,-2.730223 -0.08358,-6.26193 0,-6.880377 0.0052,-6.809427 -0.586138,-7.989628 -1.567083,-3.127574 -6.706849,-3.209547 -8.346569,-0.133117 -0.542441,1.017724 -0.582406,1.390303 -0.583959,5.444207 -0.0016,4.110471 -0.03395,4.374776 -0.603473,4.92678 -0.829437,0.803922 -2.906221,0.784597 -3.725484,-0.03467 -0.559973,-0.559974 -0.621847,-0.954403 -0.621847,-3.964103 v -2.647785 h 1.475301 1.475301 V 58.155417 52.06385 H 38.345662 36.870361 V 48.922887 45.781923 H 35.39506 33.919758 v 3.140964 3.140963 h -1.476005 -1.476006 l 0.0245,6.067772 0.0245,6.067771 1.451506,0.02627 1.451506,0.02627 v 2.654209 c 0,1.926676 0.03793,2.852438 0.13837,3.377401 0.398968,2.085221 1.86446,3.573543 3.954401,4.016008 0.92356,0.195528 2.457917,0.128313 3.338191,-0.146234 1.634572,-0.509804 2.787723,-1.755174 3.231359,-3.489775 0.171326,-0.669878 0.188282,-1.061012 0.188282,-4.343259 0,-2.344852 0.03727,-3.755088 0.106499,-4.030033 0.20263,-0.804712 0.977454,-1.201188 2.058017,-1.053081 0.640847,0.08784 0.990624,0.328925 1.26199,0.869836 l 0.237952,0.474307 0.02683,6.728936 0.02683,6.728935 -0.788279,0.249947 c -2.010521,0.637492 -4.374019,1.138547 -6.737073,1.428243 -1.209306,0.148254 -5.844889,0.272924 -6.662651,0.179187 z m 3.595917,-35.898079 -0.02664,-1.213554 -2.403313,-0.02543 -2.403313,-0.02543 v 1.238984 1.238983 h 2.429952 2.429952 z m 3.106782,-6.678424 3.100916,-3.894388 V 30.180311 28.93494 h -8.375904 -8.375904 v 1.292272 1.292273 l 3.063332,3.847486 3.063331,3.847487 h 2.211656 2.211657 z m 2.412877,-8.429437 c 0.171247,-0.103555 0.396112,-0.363358 0.499699,-0.57734 0.183078,-0.378189 0.188282,-0.609571 0.18625,-8.282801 -0.002,-7.548779 -0.01,-7.911147 -0.182883,-8.2919507 -0.358867,-0.7904318 0.155721,-0.743963 -8.238521,-0.743963 -7.10561,0 -7.436814,0.0077 -7.720533,0.1794672 -0.645621,0.3908681 -0.607781,-0.1631048 -0.607781,8.8978705 v 8.19134 l 0.295213,0.336229 c 0.162368,0.184925 0.430064,0.37582 0.59488,0.424208 0.174133,0.05112 3.349908,0.08112 7.580992,0.0716 7.070805,-0.0159 7.290327,-0.02182 7.592684,-0.204661 z"
     id="path1483" />
  <path
     style="fill:#80ff4d;fill-opacity:0;stroke-width:0.0951807"
     d="M 34.300482,77.896573 C 34.117259,77.87557 33.474789,77.812142 32.872771,77.75562 23.608732,76.885846 14.639024,72.134443 8.5965307,64.896091 3.929786,59.30576 1.157897,52.841311 0.25773165,45.448795 0.10998692,44.235457 0.083818,43.277927 0.08344787,39.071687 0.08298749,33.83976 0.12479324,33.093068 0.5648974,30.472509 2.9482983,16.280776 13.620497,4.6952473 27.542651,1.1859909 30.687374,0.39332331 33.320297,0.06895342 36.63241,0.06615381 39.122275,0.06404921 40.417354,0.16426694 42.676386,0.53385744 58.09007,3.0556244 70.214705,15.107772 72.795103,30.472509 c 0.440014,2.620021 0.481895,3.367638 0.481718,8.599178 -1.91e-4,5.342341 -0.04967,6.107839 -0.581468,8.994578 -1.860117,10.097147 -7.89145,18.93564 -16.646076,24.393649 -1.125263,0.701537 -4.426524,2.447315 -4.627866,2.447315 -0.04714,0 -0.08358,-2.730223 -0.08358,-6.26193 0,-6.880377 0.0052,-6.809427 -0.586138,-7.989628 -1.567083,-3.127574 -6.706849,-3.209547 -8.346569,-0.133117 -0.542441,1.017724 -0.582406,1.390303 -0.583959,5.444207 -0.0016,4.110471 -0.03395,4.374776 -0.603473,4.92678 -0.829437,0.803922 -2.906221,0.784597 -3.725484,-0.03467 -0.559973,-0.559974 -0.621847,-0.954403 -0.621847,-3.964103 v -2.647785 h 1.475301 1.475301 V 58.155417 52.06385 H 38.345662 36.870361 V 48.922887 45.781923 H 35.39506 33.919758 v 3.140964 3.140963 h -1.476005 -1.476006 l 0.0245,6.067772 0.0245,6.067771 1.451506,0.02627 1.451506,0.02627 v 2.654209 c 0,1.926676 0.03793,2.852438 0.13837,3.377401 0.398968,2.085221 1.86446,3.573543 3.954401,4.016008 0.92356,0.195528 2.457917,0.128313 3.338191,-0.146234 1.634572,-0.509804 2.787723,-1.755174 3.231359,-3.489775 0.171326,-0.669878 0.188282,-1.061012 0.188282,-4.343259 0,-2.344852 0.03727,-3.755088 0.106499,-4.030033 0.20263,-0.804712 0.977454,-1.201188 2.058017,-1.053081 0.640847,0.08784 0.990624,0.328925 1.26199,0.869836 l 0.237952,0.474307 0.02683,6.728936 0.02683,6.728935 -0.788279,0.249947 c -2.010521,0.637492 -4.374019,1.138547 -6.737073,1.428243 -1.209306,0.148254 -5.844889,0.272924 -6.662651,0.179187 z m 3.595917,-35.898079 -0.02664,-1.213554 -2.403313,-0.02543 -2.403313,-0.02543 v 1.238984 1.238983 h 2.429952 2.429952 z m 3.106782,-6.678424 3.100916,-3.894388 V 30.180311 28.93494 h -8.375904 -8.375904 v 1.292272 1.292273 l 3.063332,3.847486 3.063331,3.847487 h 2.211656 2.211657 z m 2.412877,-8.429437 c 0.171247,-0.103555 0.396112,-0.363358 0.499699,-0.57734 0.183078,-0.378189 0.188282,-0.609571 0.18625,-8.282801 -0.002,-7.548779 -0.01,-7.911147 -0.182883,-8.2919507 -0.358867,-0.7904318 0.155721,-0.743963 -8.238521,-0.743963 -7.10561,0 -7.436814,0.0077 -7.720533,0.1794672 -0.645621,0.3908681 -0.607781,-0.1631048 -0.607781,8.8978705 v 8.19134 l 0.295213,0.336229 c 0.162368,0.184925 0.430064,0.37582 0.59488,0.424208 0.174133,0.05112 3.349908,0.08112 7.580992,0.0716 7.070805,-0.0159 7.290327,-0.02182 7.592684,-0.204661 z"
     id="path1485" />
  <path
     style="fill:#80ff4d;fill-opacity:0;stroke-width:0.0951807"
     d="M 34.300482,77.896573 C 34.117259,77.87557 33.474789,77.812142 32.872771,77.75562 23.608732,76.885846 14.639024,72.134443 8.5965307,64.896091 3.929786,59.30576 1.157897,52.841311 0.25773165,45.448795 0.10998692,44.235457 0.083818,43.277927 0.08344787,39.071687 0.08298749,33.83976 0.12479324,33.093068 0.5648974,30.472509 2.9482983,16.280776 13.620497,4.6952473 27.542651,1.1859909 30.687374,0.39332331 33.320297,0.06895342 36.63241,0.06615381 39.122275,0.06404921 40.417354,0.16426694 42.676386,0.53385744 58.09007,3.0556244 70.214705,15.107772 72.795103,30.472509 c 0.440014,2.620021 0.481895,3.367638 0.481718,8.599178 -1.91e-4,5.342341 -0.04967,6.107839 -0.581468,8.994578 -1.860117,10.097147 -7.89145,18.93564 -16.646076,24.393649 -1.125263,0.701537 -4.426524,2.447315 -4.627866,2.447315 -0.04714,0 -0.08358,-2.730223 -0.08358,-6.26193 0,-6.880377 0.0052,-6.809427 -0.586138,-7.989628 -1.567083,-3.127574 -6.706849,-3.209547 -8.346569,-0.133117 -0.542441,1.017724 -0.582406,1.390303 -0.583959,5.444207 -0.0016,4.110471 -0.03395,4.374776 -0.603473,4.92678 -0.829437,0.803922 -2.906221,0.784597 -3.725484,-0.03467 -0.559973,-0.559974 -0.621847,-0.954403 -0.621847,-3.964103 v -2.647785 h 1.475301 1.475301 V 58.155417 52.06385 H 38.345662 36.870361 V 48.922887 45.781923 H 35.39506 33.919758 v 3.140964 3.140963 h -1.476005 -1.476006 l 0.0245,6.067772 0.0245,6.067771 1.451506,0.02627 1.451506,0.02627 v 2.654209 c 0,1.926676 0.03793,2.852438 0.13837,3.377401 0.398968,2.085221 1.86446,3.573543 3.954401,4.016008 0.92356,0.195528 2.457917,0.128313 3.338191,-0.146234 1.634572,-0.509804 2.787723,-1.755174 3.231359,-3.489775 0.171326,-0.669878 0.188282,-1.061012 0.188282,-4.343259 0,-2.344852 0.03727,-3.755088 0.106499,-4.030033 0.20263,-0.804712 0.977454,-1.201188 2.058017,-1.053081 0.640847,0.08784 0.990624,0.328925 1.26199,0.869836 l 0.237952,0.474307 0.02683,6.728936 0.02683,6.728935 -0.788279,0.249947 c -2.010521,0.637492 -4.374019,1.138547 -6.737073,1.428243 -1.209306,0.148254 -5.844889,0.272924 -6.662651,0.179187 z m 3.595917,-35.898079 -0.02664,-1.213554 -2.403313,-0.02543 -2.403313,-0.02543 v 1.238984 1.238983 h 2.429952 2.429952 z m 3.106782,-6.678424 3.100916,-3.894388 V 30.180311 28.93494 h -8.375904 -8.375904 v 1.292272 1.292273 l 3.063332,3.847486 3.063331,3.847487 h 2.211656 2.211657 z m 2.412877,-8.429437 c 0.171247,-0.103555 0.396112,-0.363358 0.499699,-0.57734 0.183078,-0.378189 0.188282,-0.609571 0.18625,-8.282801 -0.002,-7.548779 -0.01,-7.911147 -0.182883,-8.2919507 -0.358867,-0.7904318 0.155721,-0.743963 -8.238521,-0.743963 -7.10561,0 -7.436814,0.0077 -7.720533,0.1794672 -0.645621,0.3908681 -0.607781,-0.1631048 -0.607781,8.8978705 v 8.19134 l 0.295213,0.336229 c 0.162368,0.184925 0.430064,0.37582 0.59488,0.424208 0.174133,0.05112 3.349908,0.08112 7.580992,0.0716 7.070805,-0.0159 7.290327,-0.02182 7.592684,-0.204661 z"
     id="path1487" />
  <path
     style="fill:#000000;fill-opacity:0;stroke-width:0.0951807"
     d="M 34.300482,77.896573 C 34.117259,77.87557 33.474789,77.812142 32.872771,77.75562 23.608732,76.885846 14.639024,72.134443 8.5965307,64.896091 3.929786,59.30576 1.157897,52.841311 0.25773165,45.448795 0.10998692,44.235457 0.083818,43.277927 0.08344787,39.071687 0.08298749,33.83976 0.12479324,33.093068 0.5648974,30.472509 2.9482983,16.280776 13.620497,4.6952473 27.542651,1.1859909 30.687374,0.39332331 33.320297,0.06895342 36.63241,0.06615381 39.122275,0.06404921 40.417354,0.16426694 42.676386,0.53385744 58.09007,3.0556244 70.214705,15.107772 72.795103,30.472509 c 0.440014,2.620021 0.481895,3.367638 0.481718,8.599178 -1.91e-4,5.342341 -0.04967,6.107839 -0.581468,8.994578 -1.860117,10.097147 -7.89145,18.93564 -16.646076,24.393649 -1.125263,0.701537 -4.426524,2.447315 -4.627866,2.447315 -0.04714,0 -0.08358,-2.730223 -0.08358,-6.26193 0,-6.880377 0.0052,-6.809427 -0.586138,-7.989628 -1.567083,-3.127574 -6.706849,-3.209547 -8.346569,-0.133117 -0.542441,1.017724 -0.582406,1.390303 -0.583959,5.444207 -0.0016,4.110471 -0.03395,4.374776 -0.603473,4.92678 -0.829437,0.803922 -2.906221,0.784597 -3.725484,-0.03467 -0.559973,-0.559974 -0.621847,-0.954403 -0.621847,-3.964103 v -2.647785 h 1.475301 1.475301 V 58.155417 52.06385 H 38.345662 36.870361 V 48.922887 45.781923 H 35.39506 33.919758 v 3.140964 3.140963 h -1.476005 -1.476006 l 0.0245,6.067772 0.0245,6.067771 1.451506,0.02627 1.451506,0.02627 v 2.654209 c 0,1.926676 0.03793,2.852438 0.13837,3.377401 0.398968,2.085221 1.86446,3.573543 3.954401,4.016008 0.92356,0.195528 2.457917,0.128313 3.338191,-0.146234 1.634572,-0.509804 2.787723,-1.755174 3.231359,-3.489775 0.171326,-0.669878 0.188282,-1.061012 0.188282,-4.343259 0,-2.344852 0.03727,-3.755088 0.106499,-4.030033 0.20263,-0.804712 0.977454,-1.201188 2.058017,-1.053081 0.640847,0.08784 0.990624,0.328925 1.26199,0.869836 l 0.237952,0.474307 0.02683,6.728936 0.02683,6.728935 -0.788279,0.249947 c -2.010521,0.637492 -4.374019,1.138547 -6.737073,1.428243 -1.209306,0.148254 -5.844889,0.272924 -6.662651,0.179187 z m 3.595917,-35.898079 -0.02664,-1.213554 -2.403313,-0.02543 -2.403313,-0.02543 v 1.238984 1.238983 h 2.429952 2.429952 z m 3.106782,-6.678424 3.100916,-3.894388 V 30.180311 28.93494 h -8.375904 -8.375904 v 1.292272 1.292273 l 3.063332,3.847486 3.063331,3.847487 h 2.211656 2.211657 z m 2.412877,-8.429437 c 0.171247,-0.103555 0.396112,-0.363358 0.499699,-0.57734 0.183078,-0.378189 0.188282,-0.609571 0.18625,-8.282801 -0.002,-7.548779 -0.01,-7.911147 -0.182883,-8.2919507 -0.358867,-0.7904318 0.155721,-0.743963 -8.238521,-0.743963 -7.10561,0 -7.436814,0.0077 -7.720533,0.1794672 -0.645621,0.3908681 -0.607781,-0.1631048 -0.607781,8.8978705 v 8.19134 l 0.295213,0.336229 c 0.162368,0.184925 0.430064,0.37582 0.59488,0.424208 0.174133,0.05112 3.349908,0.08112 7.580992,0.0716 7.070805,-0.0159 7.290327,-0.02182 7.592684,-0.204661 z"
     id="path1489" />
  <path
     style="fill:#000000;fill-opacity:0;stroke-width:0.0951807"
     d="M 34.300482,77.896573 C 34.117259,77.87557 33.474789,77.812142 32.872771,77.75562 23.608732,76.885846 14.639024,72.134443 8.5965307,64.896091 3.929786,59.30576 1.157897,52.841311 0.25773165,45.448795 0.10998692,44.235457 0.083818,43.277927 0.08344787,39.071687 0.08298749,33.83976 0.12479324,33.093068 0.5648974,30.472509 2.9482983,16.280776 13.620497,4.6952473 27.542651,1.1859909 30.687374,0.39332331 33.320297,0.06895342 36.63241,0.06615381 39.122275,0.06404921 40.417354,0.16426694 42.676386,0.53385744 58.09007,3.0556244 70.214705,15.107772 72.795103,30.472509 c 0.440014,2.620021 0.481895,3.367638 0.481718,8.599178 -1.91e-4,5.342341 -0.04967,6.107839 -0.581468,8.994578 -1.860117,10.097147 -7.89145,18.93564 -16.646076,24.393649 -1.125263,0.701537 -4.426524,2.447315 -4.627866,2.447315 -0.04714,0 -0.08358,-2.730223 -0.08358,-6.26193 0,-6.880377 0.0052,-6.809427 -0.586138,-7.989628 -1.567083,-3.127574 -6.706849,-3.209547 -8.346569,-0.133117 -0.542441,1.017724 -0.582406,1.390303 -0.583959,5.444207 -0.0016,4.110471 -0.03395,4.374776 -0.603473,4.92678 -0.829437,0.803922 -2.906221,0.784597 -3.725484,-0.03467 -0.559973,-0.559974 -0.621847,-0.954403 -0.621847,-3.964103 v -2.647785 h 1.475301 1.475301 V 58.155417 52.06385 H 38.345662 36.870361 V 48.922887 45.781923 H 35.39506 33.919758 v 3.140964 3.140963 h -1.476005 -1.476006 l 0.0245,6.067772 0.0245,6.067771 1.451506,0.02627 1.451506,0.02627 v 2.654209 c 0,1.926676 0.03793,2.852438 0.13837,3.377401 0.398968,2.085221 1.86446,3.573543 3.954401,4.016008 0.92356,0.195528 2.457917,0.128313 3.338191,-0.146234 1.634572,-0.509804 2.787723,-1.755174 3.231359,-3.489775 0.171326,-0.669878 0.188282,-1.061012 0.188282,-4.343259 0,-2.344852 0.03727,-3.755088 0.106499,-4.030033 0.20263,-0.804712 0.977454,-1.201188 2.058017,-1.053081 0.640847,0.08784 0.990624,0.328925 1.26199,0.869836 l 0.237952,0.474307 0.02683,6.728936 0.02683,6.728935 -0.788279,0.249947 c -2.010521,0.637492 -4.374019,1.138547 -6.737073,1.428243 -1.209306,0.148254 -5.844889,0.272924 -6.662651,0.179187 z m 3.595917,-35.898079 -0.02664,-1.213554 -2.403313,-0.02543 -2.403313,-0.02543 v 1.238984 1.238983 h 2.429952 2.429952 z m 3.106782,-6.678424 3.100916,-3.894388 V 30.180311 28.93494 h -8.375904 -8.375904 v 1.292272 1.292273 l 3.063332,3.847486 3.063331,3.847487 h 2.211656 2.211657 z m 2.412877,-8.429437 c 0.171247,-0.103555 0.396112,-0.363358 0.499699,-0.57734 0.183078,-0.378189 0.188282,-0.609571 0.18625,-8.282801 -0.002,-7.548779 -0.01,-7.911147 -0.182883,-8.2919507 -0.358867,-0.7904318 0.155721,-0.743963 -8.238521,-0.743963 -7.10561,0 -7.436814,0.0077 -7.720533,0.1794672 -0.645621,0.3908681 -0.607781,-0.1631048 -0.607781,8.8978705 v 8.19134 l 0.295213,0.336229 c 0.162368,0.184925 0.430064,0.37582 0.59488,0.424208 0.174133,0.05112 3.349908,0.08112 7.580992,0.0716 7.070805,-0.0159 7.290327,-0.02182 7.592684,-0.204661 z"
     id="path1491" />
  <path
     style="fill:#000000;fill-opacity:0;stroke-width:0.0951807"
     d="M 34.300482,77.896573 C 34.117259,77.87557 33.474789,77.812142 32.872771,77.75562 23.608732,76.885846 14.639024,72.134443 8.5965307,64.896091 3.929786,59.30576 1.157897,52.841311 0.25773165,45.448795 0.10998692,44.235457 0.083818,43.277927 0.08344787,39.071687 0.08298749,33.83976 0.12479324,33.093068 0.5648974,30.472509 2.9482983,16.280776 13.620497,4.6952473 27.542651,1.1859909 30.687374,0.39332331 33.320297,0.06895342 36.63241,0.06615381 39.122275,0.06404921 40.417354,0.16426694 42.676386,0.53385744 58.09007,3.0556244 70.214705,15.107772 72.795103,30.472509 c 0.440014,2.620021 0.481895,3.367638 0.481718,8.599178 -1.91e-4,5.342341 -0.04967,6.107839 -0.581468,8.994578 -1.860117,10.097147 -7.89145,18.93564 -16.646076,24.393649 -1.125263,0.701537 -4.426524,2.447315 -4.627866,2.447315 -0.04714,0 -0.08358,-2.730223 -0.08358,-6.26193 0,-6.880377 0.0052,-6.809427 -0.586138,-7.989628 -1.567083,-3.127574 -6.706849,-3.209547 -8.346569,-0.133117 -0.542441,1.017724 -0.582406,1.390303 -0.583959,5.444207 -0.0016,4.110471 -0.03395,4.374776 -0.603473,4.92678 -0.829437,0.803922 -2.906221,0.784597 -3.725484,-0.03467 -0.559973,-0.559974 -0.621847,-0.954403 -0.621847,-3.964103 v -2.647785 h 1.475301 1.475301 V 58.155417 52.06385 H 38.345662 36.870361 V 48.922887 45.781923 H 35.39506 33.919758 v 3.140964 3.140963 h -1.476005 -1.476006 l 0.0245,6.067772 0.0245,6.067771 1.451506,0.02627 1.451506,0.02627 v 2.654209 c 0,1.926676 0.03793,2.852438 0.13837,3.377401 0.398968,2.085221 1.86446,3.573543 3.954401,4.016008 0.92356,0.195528 2.457917,0.128313 3.338191,-0.146234 1.634572,-0.509804 2.787723,-1.755174 3.231359,-3.489775 0.171326,-0.669878 0.188282,-1.061012 0.188282,-4.343259 0,-2.344852 0.03727,-3.755088 0.106499,-4.030033 0.20263,-0.804712 0.977454,-1.201188 2.058017,-1.053081 0.640847,0.08784 0.990624,0.328925 1.26199,0.869836 l 0.237952,0.474307 0.02683,6.728936 0.02683,6.728935 -0.788279,0.249947 c -2.010521,0.637492 -4.374019,1.138547 -6.737073,1.428243 -1.209306,0.148254 -5.844889,0.272924 -6.662651,0.179187 z m 3.595917,-35.898079 -0.02664,-1.213554 -2.403313,-0.02543 -2.403313,-0.02543 v 1.238984 1.238983 h 2.429952 2.429952 z m 3.106782,-6.678424 3.100916,-3.894388 V 30.180311 28.93494 h -8.375904 -8.375904 v 1.292272 1.292273 l 3.063332,3.847486 3.063331,3.847487 h 2.211656 2.211657 z m 2.412877,-8.429437 c 0.171247,-0.103555 0.396112,-0.363358 0.499699,-0.57734 0.183078,-0.378189 0.188282,-0.609571 0.18625,-8.282801 -0.002,-7.548779 -0.01,-7.911147 -0.182883,-8.2919507 -0.358867,-0.7904318 0.155721,-0.743963 -8.238521,-0.743963 -7.10561,0 -7.436814,0.0077 -7.720533,0.1794672 -0.645621,0.3908681 -0.607781,-0.1631048 -0.607781,8.8978705 v 8.19134 l 0.295213,0.336229 c 0.162368,0.184925 0.430064,0.37582 0.59488,0.424208 0.174133,0.05112 3.349908,0.08112 7.580992,0.0716 7.070805,-0.0159 7.290327,-0.02182 7.592684,-0.204661 z"
     id="path1493" />
  <path
     style="fill:#000000;fill-opacity:0;stroke-width:0.0951807"
     d="M 34.300482,77.896573 C 34.117259,77.87557 33.474789,77.812142 32.872771,77.75562 23.608732,76.885846 14.639024,72.134443 8.5965307,64.896091 3.929786,59.30576 1.157897,52.841311 0.25773165,45.448795 0.10998692,44.235457 0.083818,43.277927 0.08344787,39.071687 0.08298749,33.83976 0.12479324,33.093068 0.5648974,30.472509 2.9482983,16.280776 13.620497,4.6952473 27.542651,1.1859909 30.687374,0.39332331 33.320297,0.06895342 36.63241,0.06615381 39.122275,0.06404921 40.417354,0.16426694 42.676386,0.53385744 58.09007,3.0556244 70.214705,15.107772 72.795103,30.472509 c 0.440014,2.620021 0.481895,3.367638 0.481718,8.599178 -1.91e-4,5.342341 -0.04967,6.107839 -0.581468,8.994578 -1.860117,10.097147 -7.89145,18.93564 -16.646076,24.393649 -1.125263,0.701537 -4.426524,2.447315 -4.627866,2.447315 -0.04714,0 -0.08358,-2.730223 -0.08358,-6.26193 0,-6.880377 0.0052,-6.809427 -0.586138,-7.989628 -1.567083,-3.127574 -6.706849,-3.209547 -8.346569,-0.133117 -0.542441,1.017724 -0.582406,1.390303 -0.583959,5.444207 -0.0016,4.110471 -0.03395,4.374776 -0.603473,4.92678 -0.829437,0.803922 -2.906221,0.784597 -3.725484,-0.03467 -0.559973,-0.559974 -0.621847,-0.954403 -0.621847,-3.964103 v -2.647785 h 1.475301 1.475301 V 58.155417 52.06385 H 38.345662 36.870361 V 48.922887 45.781923 H 35.39506 33.919758 v 3.140964 3.140963 h -1.476005 -1.476006 l 0.0245,6.067772 0.0245,6.067771 1.451506,0.02627 1.451506,0.02627 v 2.654209 c 0,1.926676 0.03793,2.852438 0.13837,3.377401 0.398968,2.085221 1.86446,3.573543 3.954401,4.016008 0.92356,0.195528 2.457917,0.128313 3.338191,-0.146234 1.634572,-0.509804 2.787723,-1.755174 3.231359,-3.489775 0.171326,-0.669878 0.188282,-1.061012 0.188282,-4.343259 0,-2.344852 0.03727,-3.755088 0.106499,-4.030033 0.20263,-0.804712 0.977454,-1.201188 2.058017,-1.053081 0.640847,0.08784 0.990624,0.328925 1.26199,0.869836 l 0.237952,0.474307 0.02683,6.728936 0.02683,6.728935 -0.788279,0.249947 c -2.010521,0.637492 -4.374019,1.138547 -6.737073,1.428243 -1.209306,0.148254 -5.844889,0.272924 -6.662651,0.179187 z m 3.595917,-35.898079 -0.02664,-1.213554 -2.403313,-0.02543 -2.403313,-0.02543 v 1.238984 1.238983 h 2.429952 2.429952 z m 3.106782,-6.678424 3.100916,-3.894388 V 30.180311 28.93494 h -8.375904 -8.375904 v 1.292272 1.292273 l 3.063332,3.847486 3.063331,3.847487 h 2.211656 2.211657 z m 2.412877,-8.429437 c 0.171247,-0.103555 0.396112,-0.363358 0.499699,-0.57734 0.183078,-0.378189 0.188282,-0.609571 0.18625,-8.282801 -0.002,-7.548779 -0.01,-7.911147 -0.182883,-8.2919507 -0.358867,-0.7904318 0.155721,-0.743963 -8.238521,-0.743963 -7.10561,0 -7.436814,0.0077 -7.720533,0.1794672 -0.645621,0.3908681 -0.607781,-0.1631048 -0.607781,8.8978705 v 8.19134 l 0.295213,0.336229 c 0.162368,0.184925 0.430064,0.37582 0.59488,0.424208 0.174133,0.05112 3.349908,0.08112 7.580992,0.0716 7.070805,-0.0159 7.290327,-0.02182 7.592684,-0.204661 z"
     id="path1495" />
  <path
     style="fill:#00ff00;fill-opacity:0;stroke-width:0.0951807"
     d="M 34.300482,77.896573 C 34.117259,77.87557 33.474789,77.812142 32.872771,77.75562 23.608732,76.885846 14.639024,72.134443 8.5965307,64.896091 3.929786,59.30576 1.157897,52.841311 0.25773165,45.448795 0.10998692,44.235457 0.083818,43.277927 0.08344787,39.071687 0.08298749,33.83976 0.12479324,33.093068 0.5648974,30.472509 2.9482983,16.280776 13.620497,4.6952473 27.542651,1.1859909 30.687374,0.39332331 33.320297,0.06895342 36.63241,0.06615381 39.122275,0.06404921 40.417354,0.16426694 42.676386,0.53385744 58.09007,3.0556244 70.214705,15.107772 72.795103,30.472509 c 0.440014,2.620021 0.481895,3.367638 0.481718,8.599178 -1.91e-4,5.342341 -0.04967,6.107839 -0.581468,8.994578 -1.860117,10.097147 -7.89145,18.93564 -16.646076,24.393649 -1.125263,0.701537 -4.426524,2.447315 -4.627866,2.447315 -0.04714,0 -0.08358,-2.730223 -0.08358,-6.26193 0,-6.880377 0.0052,-6.809427 -0.586138,-7.989628 -1.567083,-3.127574 -6.706849,-3.209547 -8.346569,-0.133117 -0.542441,1.017724 -0.582406,1.390303 -0.583959,5.444207 -0.0016,4.110471 -0.03395,4.374776 -0.603473,4.92678 -0.829437,0.803922 -2.906221,0.784597 -3.725484,-0.03467 -0.559973,-0.559974 -0.621847,-0.954403 -0.621847,-3.964103 v -2.647785 h 1.475301 1.475301 V 58.155417 52.06385 H 38.345662 36.870361 V 48.922887 45.781923 H 35.39506 33.919758 v 3.140964 3.140963 h -1.476005 -1.476006 l 0.0245,6.067772 0.0245,6.067771 1.451506,0.02627 1.451506,0.02627 v 2.654209 c 0,1.926676 0.03793,2.852438 0.13837,3.377401 0.398968,2.085221 1.86446,3.573543 3.954401,4.016008 0.92356,0.195528 2.457917,0.128313 3.338191,-0.146234 1.634572,-0.509804 2.787723,-1.755174 3.231359,-3.489775 0.171326,-0.669878 0.188282,-1.061012 0.188282,-4.343259 0,-2.344852 0.03727,-3.755088 0.106499,-4.030033 0.20263,-0.804712 0.977454,-1.201188 2.058017,-1.053081 0.640847,0.08784 0.990624,0.328925 1.26199,0.869836 l 0.237952,0.474307 0.02683,6.728936 0.02683,6.728935 -0.788279,0.249947 c -2.010521,0.637492 -4.374019,1.138547 -6.737073,1.428243 -1.209306,0.148254 -5.844889,0.272924 -6.662651,0.179187 z m 3.595917,-35.898079 -0.02664,-1.213554 -2.403313,-0.02543 -2.403313,-0.02543 v 1.238984 1.238983 h 2.429952 2.429952 z m 3.106782,-6.678424 3.100916,-3.894388 V 30.180311 28.93494 h -8.375904 -8.375904 v 1.292272 1.292273 l 3.063332,3.847486 3.063331,3.847487 h 2.211656 2.211657 z m 2.412877,-8.429437 c 0.171247,-0.103555 0.396112,-0.363358 0.499699,-0.57734 0.183078,-0.378189 0.188282,-0.609571 0.18625,-8.282801 -0.002,-7.548779 -0.01,-7.911147 -0.182883,-8.2919507 -0.358867,-0.7904318 0.155721,-0.743963 -8.238521,-0.743963 -7.10561,0 -7.436814,0.0077 -7.720533,0.1794672 -0.645621,0.3908681 -0.607781,-0.1631048 -0.607781,8.8978705 v 8.19134 l 0.295213,0.336229 c 0.162368,0.184925 0.430064,0.37582 0.59488,0.424208 0.174133,0.05112 3.349908,0.08112 7.580992,0.0716 7.070805,-0.0159 7.290327,-0.02182 7.592684,-0.204661 z"
     id="path1499" />
  <path
     style="fill:#8fc46c;fill-opacity:1;stroke-width:0.0951807;stroke:#8fc46c;stroke-opacity:1"
     d="M 34.300482,77.896573 C 34.117259,77.87557 33.474789,77.812142 32.872771,77.75562 23.608732,76.885846 14.639024,72.134443 8.5965307,64.896091 3.929786,59.30576 1.157897,52.841311 0.25773165,45.448795 0.10998692,44.235457 0.083818,43.277927 0.08344787,39.071687 0.08298749,33.83976 0.12479324,33.093068 0.5648974,30.472509 2.9482983,16.280776 13.620497,4.6952473 27.542651,1.1859909 30.687374,0.39332331 33.320297,0.06895342 36.63241,0.06615381 39.122275,0.06404921 40.417354,0.16426694 42.676386,0.53385744 58.09007,3.0556244 70.214705,15.107772 72.795103,30.472509 c 0.440014,2.620021 0.481895,3.367638 0.481718,8.599178 -1.91e-4,5.342341 -0.04967,6.107839 -0.581468,8.994578 -1.860117,10.097147 -7.89145,18.93564 -16.646076,24.393649 -1.125263,0.701537 -4.426524,2.447315 -4.627866,2.447315 -0.04714,0 -0.08358,-2.730223 -0.08358,-6.26193 0,-6.880377 0.0052,-6.809427 -0.586138,-7.989628 -1.567083,-3.127574 -6.706849,-3.209547 -8.346569,-0.133117 -0.542441,1.017724 -0.582406,1.390303 -0.583959,5.444207 -0.0016,4.110471 -0.03395,4.374776 -0.603473,4.92678 -0.829437,0.803922 -2.906221,0.784597 -3.725484,-0.03467 -0.559973,-0.559974 -0.621847,-0.954403 -0.621847,-3.964103 v -2.647785 h 1.475301 1.475301 V 58.155417 52.06385 H 38.345662 36.870361 V 48.922887 45.781923 H 35.39506 33.919758 v 3.140964 3.140963 h -1.476005 -1.476006 l 0.0245,6.067772 0.0245,6.067771 1.451506,0.02627 1.451506,0.02627 v 2.654209 c 0,1.926676 0.03793,2.852438 0.13837,3.377401 0.398968,2.085221 1.86446,3.573543 3.954401,4.016008 0.92356,0.195528 2.457917,0.128313 3.338191,-0.146234 1.634572,-0.509804 2.787723,-1.755174 3.231359,-3.489775 0.171326,-0.669878 0.188282,-1.061012 0.188282,-4.343259 0,-2.344852 0.03727,-3.755088 0.106499,-4.030033 0.20263,-0.804712 0.977454,-1.201188 2.058017,-1.053081 0.640847,0.08784 0.990624,0.328925 1.26199,0.869836 l 0.237952,0.474307 0.02683,6.728936 0.02683,6.728935 -0.788279,0.249947 c -2.010521,0.637492 -4.374019,1.138547 -6.737073,1.428243 -1.209306,0.148254 -5.844889,0.272924 -6.662651,0.179187 z m 3.595917,-35.898079 -0.02664,-1.213554 -2.403313,-0.02543 -2.403313,-0.02543 v 1.238984 1.238983 h 2.429952 2.429952 z m 3.106782,-6.678424 3.100916,-3.894388 V 30.180311 28.93494 h -8.375904 -8.375904 v 1.292272 1.292273 l 3.063332,3.847486 3.063331,3.847487 h 2.211656 2.211657 z m 2.412877,-8.429437 c 0.171247,-0.103555 0.396112,-0.363358 0.499699,-0.57734 0.183078,-0.378189 0.188282,-0.609571 0.18625,-8.282801 -0.002,-7.548779 -0.01,-7.911147 -0.182883,-8.2919507 -0.358867,-0.7904318 0.155721,-0.743963 -8.238521,-0.743963 -7.10561,0 -7.436814,0.0077 -7.720533,0.1794672 -0.645621,0.3908681 -0.607781,-0.1631048 -0.607781,8.8978705 v 8.19134 l 0.295213,0.336229 c 0.162368,0.184925 0.430064,0.37582 0.59488,0.424208 0.174133,0.05112 3.349908,0.08112 7.580992,0.0716 7.070805,-0.0159 7.290327,-0.02182 7.592684,-0.204661 z"
     id="path1501" />
  <path
     style="fill:#8fc46c;fill-opacity:1;stroke:#8fc46c;stroke-width:0.0951807;stroke-opacity:1"
     d="M 33.063133,77.803685 C 24.8579,76.91993 17.829152,73.762844 11.732449,68.222633 9.2073383,65.928008 6.5000396,62.498574 4.7078658,59.324338 2.3536037,55.154551 0.85944015,50.469247 0.20701119,45.210843 0.03418282,43.817893 0.03599563,34.262105 0.20936758,32.789759 0.61126767,29.376659 1.4057861,26.150595 2.5769298,23.176506 5.8333655,14.906873 12.217715,7.9091171 20.117697,3.9504295 25.88038,1.0627444 31.967446,-0.21197941 38.541798,0.09214357 46.411624,0.45619384 53.983255,3.3944442 60.172569,8.4861887 c 1.235749,1.0166099 4.041179,3.8757703 5.075048,5.1722453 4.414164,5.535377 7.009552,11.783142 7.888047,18.988554 0.153871,1.262055 0.226201,8.611772 0.107284,10.901614 -0.283718,5.463202 -1.92555,11.066365 -4.656586,15.891759 -0.704732,1.245175 -2.326602,3.638913 -3.212493,4.74136 -2.979694,3.708083 -6.596892,6.79791 -10.539308,9.002727 -2.045114,1.143741 -3.324786,1.751804 -3.40694,1.618878 -0.04046,-0.06547 -0.09151,-2.927867 -0.113442,-6.36088 -0.04346,-6.803906 -0.04148,-6.77841 -0.607939,-7.819179 -0.802931,-1.475249 -2.318363,-2.315841 -4.175035,-2.315841 -2.278157,0 -4.044254,1.301169 -4.531788,3.338788 -0.06737,0.28155 -0.135214,1.987382 -0.175374,4.409208 -0.04628,2.791039 -0.100121,4.03378 -0.1835,4.235542 -0.31609,0.764882 -1.119606,1.189759 -2.25004,1.189759 -1.100632,0 -1.883496,-0.373605 -2.260549,-1.078798 -0.203517,-0.380634 -0.213249,-0.511739 -0.243149,-3.27572 l -0.03115,-2.879217 h 1.482652 1.482653 v -6.091566 -6.091567 h -1.475301 -1.475301 v -3.140963 -3.140964 h -1.475301 -1.475302 v 3.140964 3.140963 h -1.48725 -1.48725 l 0.06981,6.020181 c 0.03839,3.3111 0.07639,6.027814 0.08443,6.037144 0.008,0.0093 0.640393,0.04739 1.40522,0.08457 l 1.390594,0.06761 0.05386,2.866033 c 0.03054,1.625329 0.10159,3.072052 0.164112,3.341937 0.42683,1.842454 1.909718,3.329305 3.756469,3.766512 0.707909,0.167592 2.455893,0.144116 3.177809,-0.04268 1.739469,-0.450089 2.972222,-1.679226 3.500462,-3.490195 0.122933,-0.42145 0.162591,-1.27487 0.210681,-4.533752 0.05692,-3.857601 0.06692,-4.024846 0.255484,-4.277252 0.380577,-0.509417 0.668641,-0.649714 1.402863,-0.683244 0.924871,-0.04223 1.431611,0.206638 1.801382,0.884708 l 0.259523,0.475903 0.0022,6.728419 c 0.0012,3.70063 -0.03108,6.749003 -0.07179,6.774161 -0.17087,0.105604 -2.4485,0.72846 -3.638035,0.994884 -0.706717,0.158284 -1.870951,0.376963 -2.587187,0.485951 -2.454019,0.373427 -6.811477,0.487591 -9.120042,0.238945 z m 4.821201,-35.749722 c -0.03425,-0.636945 -0.073,-1.168813 -0.08611,-1.181926 -0.01311,-0.01311 -1.083874,-0.05502 -2.379466,-0.09312 l -2.355623,-0.06928 v 1.251208 1.251208 h 2.441736 2.441734 z m 3.105589,-6.75351 3.114174,-3.914004 V 30.160694 28.93494 h -8.375904 -8.375904 v 1.271195 1.271196 l 3.069579,3.86555 3.069578,3.86555 2.192152,0.003 2.192153,0.003 3.114172,-3.914004 z m 2.34949,-8.435841 c 0.181442,-0.09153 0.417014,-0.316329 0.523494,-0.499552 0.190498,-0.327796 0.193599,-0.461202 0.193599,-8.328313 V 10.041566 L 43.846404,9.6487868 C 43.730848,9.432759 43.559523,9.2186022 43.465682,9.1728837 43.37184,9.1271652 39.932802,9.0783071 35.823374,9.0643103 28.838897,9.040521 28.329972,9.0498308 28.018664,9.2070814 27.370101,9.5346899 27.403066,9.0848 27.369869,18.061423 l -0.03001,8.115037 0.203562,0.258787 c 0.500421,0.636183 -0.06228,0.594773 8.089592,0.595304 6.834076,4.75e-4 7.400765,-0.01176 7.7064,-0.165939 z"
     id="path3953" />
</svg>
