<?xml version="1.0" encoding="UTF-8" standalone="no"?>
<svg
   xmlns:dc="http://purl.org/dc/elements/1.1/"
   xmlns:cc="http://creativecommons.org/ns#"
   xmlns:rdf="http://www.w3.org/1999/02/22-rdf-syntax-ns#"
   xmlns:svg="http://www.w3.org/2000/svg"
   xmlns="http://www.w3.org/2000/svg"
   xmlns:sodipodi="http://sodipodi.sourceforge.net/DTD/sodipodi-0.dtd"
   xmlns:inkscape="http://www.inkscape.org/namespaces/inkscape"
   id="Layer_2"
   data-name="Layer 2"
   viewBox="0 0 73.36 78"
   version="1.1"
   sodipodi:docname="icons-translation-into-personalised-oncology-clinical-practice CC.svg"
   inkscape:version="1.0.2-2 (e86c870879, 2021-01-15)">
  <metadata
     id="metadata4007">
    <rdf:RDF>
      <cc:Work
         rdf:about="">
        <dc:format>image/svg+xml</dc:format>
        <dc:type
           rdf:resource="http://purl.org/dc/dcmitype/StillImage" />
        <dc:title></dc:title>
      </cc:Work>
    </rdf:RDF>
  </metadata>
  <sodipodi:namedview
     pagecolor="#ffffff"
     bordercolor="#666666"
     borderopacity="1"
     objecttolerance="10"
     gridtolerance="10"
     guidetolerance="10"
     inkscape:pageopacity="0"
     inkscape:pageshadow="2"
     inkscape:window-width="1920"
     inkscape:window-height="1001"
     id="namedview4005"
     showgrid="false"
     inkscape:zoom="10.641026"
     inkscape:cx="36.68"
     inkscape:cy="38.812048"
     inkscape:window-x="-9"
     inkscape:window-y="-9"
     inkscape:window-maximized="1"
     inkscape:current-layer="Layer_2" />
  <defs
     id="defs3989">
    <style
       id="style3984">
      .cls-1 {
        fill: #fff;
      }

      .cls-2 {
        fill: #fcc75f;
      }

      .cls-3 {
        clip-path: url(#clippath);
      }

      .cls-4 {
        fill: none;
      }
    </style>
    <clipPath
       id="clippath">
      <rect
         class="cls-4"
         x="15"
         y="11"
         width="42"
         height="47"
         id="rect3986" />
    </clipPath>
  </defs>
  <g
     id="Layer_1-2"
     data-name="Layer 1">
    <rect
       class="cls-2"
       x="0"
       y="0"
       width="73.36"
       height="78"
       rx="36.68"
       ry="36.68"
       id="rect3991" />
    <g
       class="cls-3"
       clip-path="url(#clippath)"
       id="g4001">
      <g
         id="g3999">
        <path
           class="cls-1"
           d="m36.02,39.47c5.75,0,10.42-4.62,10.42-10.31,0-2.83-1.15-5.38-3.01-7.24h2.24v-7.86l-9.58-3.06-9.75,3.06v7.86h2.27c-1.86,1.86-3.01,4.42-3.01,7.24,0,5.69,4.67,10.31,10.42,10.31Z"
           id="path3993" />
        <path
           class="cls-1"
           d="m35.39,42.7c-9.54.3-17.49,6.67-20.39,15.3h42c-2.71-9.1-11.41-15.6-21.61-15.3h0Z"
           id="path3995" />
        <path
           class="cls-2"
           d="m40.72,16.28h-3.76v-3.89h-1.73v3.89h-3.93v1.71h3.93v3.71h1.73v-3.71h3.76v-1.71Z"
           id="path3997" />
      </g>
    </g>
  </g>
  <path
     style="fill:#59c4f2;stroke:#59c4f2;stroke-width:0.0939759;fill-opacity:1;stroke-opacity:1"
     d="M 35.129398,77.937367 C 25.01141,77.45117 15.748762,73.041808 9.2024476,65.595181 4.068754,59.755452 1.0305903,52.777734 0.20049001,44.920482 c -0.17207925,-1.628804 -0.17207925,-10.21216 0,-11.840964 C 1.3769984,21.943365 7.1653359,12.305748 16.38146,6.1381068 23.700735,1.2398803 32.905438,-0.84733116 41.74843,0.38602283 44.093342,0.7130736 46.221336,1.2102664 48.388409,1.9374137 61.171822,6.2268044 70.569756,17.228766 72.802491,30.518459 c 0.433597,2.580863 0.481221,3.432481 0.479559,8.575517 -0.0017,5.227082 -0.06107,6.152621 -0.572733,8.927711 -2.228056,12.084143 -10.445018,22.3244 -21.706944,27.051932 -4.993747,2.096275 -10.641109,3.115152 -15.872975,2.863748 z M 56.978795,57.906786 c 0,-0.106216 -0.510372,-1.581704 -0.704984,-2.038111 -2.643525,-6.199647 -8.088086,-10.839972 -14.67325,-12.505814 -2.083824,-0.527141 -3.106281,-0.646785 -5.531404,-0.647257 -2.365953,-4.7e-4 -3.325167,0.109552 -5.309639,0.608962 -5.425584,1.365401 -10.026608,4.630151 -13.175475,9.348928 -0.788657,1.181852 -1.958661,3.468694 -2.367957,4.628313 l -0.240478,0.681326 h 21.001594 c 11.550876,0 21.001593,-0.03436 21.001593,-0.07635 z M 38.698276,39.153289 c 2.338544,-0.616689 4.638007,-2.233284 5.973078,-4.199263 0.576602,-0.849084 1.191864,-2.206554 1.476697,-3.258082 0.225457,-0.832322 0.24864,-1.073681 0.246227,-2.563414 -0.0022,-1.368218 -0.03541,-1.763505 -0.19755,-2.352292 -0.475093,-1.725255 -1.250104,-3.230435 -2.196547,-4.265994 l -0.4788,-0.523883 h 1.090154 1.090152 v -3.97772 -3.977719 l -4.799581,-1.533711 -4.799583,-1.533709 -4.43355,1.391782 c -2.438453,0.765481 -4.634425,1.451516 -4.879937,1.524523 l -0.446385,0.13274 v 3.986907 3.986907 h 1.033735 c 0.568554,0 1.033735,0.03438 1.033735,0.07639 0,0.04202 -0.130575,0.200601 -0.290166,0.35241 -0.817867,0.777983 -1.889331,2.821682 -2.256631,4.304272 -0.247225,0.997916 -0.335179,2.879973 -0.183172,3.91956 0.472618,3.232253 2.569764,6.152862 5.505687,7.667544 1.731347,0.893226 2.980043,1.169836 5.07127,1.123385 1.25167,-0.0278 1.660709,-0.07483 2.441167,-0.280637 z"
     id="path4570" />
  <path
     style="fill:#59c4f2;fill-opacity:1;stroke:#59c4f2;stroke-width:0.0939759;stroke-opacity:1"
     d="M 34.800482,77.944392 C 32.973873,77.785938 32.05204,77.682127 30.994458,77.515778 24.457052,76.487499 18.528006,73.840752 13.373976,69.649935 11.965311,68.504528 9.3530659,65.857543 8.1667857,64.373494 3.7306856,58.823888 1.1402189,52.630454 0.2465501,45.437349 0.01924537,43.607782 0.02574223,34.352063 0.25565319,32.468675 1.5809605,21.612006 7.3854224,12.13418 16.381205,6.1380393 23.66669,1.2818977 32.627834,-0.79433874 41.425783,0.33537953 51.634388,1.6462357 60.725094,7.1483916 66.723748,15.646988 c 3.457705,4.898706 5.828418,11.258507 6.410668,17.19759 0.29359,2.994698 0.187019,11.510826 -0.172286,13.76747 C 71.623737,55.01792 67.965407,62.103492 61.994749,67.854031 56.24774,73.389165 48.931956,76.776218 40.58,77.768603 c -1.17067,0.1391 -4.896193,0.252415 -5.779518,0.175789 z M 56.978795,57.927938 c 0,-0.220087 -0.815139,-2.270268 -1.268436,-3.190287 -2.871665,-5.828358 -8.389472,-10.104376 -14.895419,-11.543189 -1.620507,-0.35838 -2.465986,-0.435426 -4.778245,-0.435426 -2.381305,0 -3.406458,0.1175 -5.324165,0.610238 -5.401482,1.387867 -9.93842,4.604021 -13.058916,9.257232 -0.970235,1.446792 -2.588072,4.719411 -2.588072,5.235246 0,0.119584 2.654343,0.133751 20.956627,0.111851 11.526145,-0.01379 20.956626,-0.03434 20.956626,-0.04566 z M 38.258059,39.228343 c 2.12064,-0.432006 4.506087,-1.906653 5.898827,-3.646567 0.713932,-0.891898 1.422986,-2.221623 1.844051,-3.458248 0.286055,-0.840112 0.300063,-0.951418 0.337055,-2.678273 0.03361,-1.569152 0.01457,-1.896692 -0.147538,-2.53735 -0.419083,-1.656239 -1.208053,-3.231371 -2.181258,-4.354756 l -0.487552,-0.562788 h 1.090022 1.090021 v -3.971514 -3.971515 l -4.795043,-1.529978 -4.795043,-1.52998 -4.884475,1.526536 -4.884475,1.526536 v 3.974958 3.974957 h 1.033735 c 0.568554,0 1.033735,0.02489 1.033735,0.05532 0,0.03042 -0.183401,0.264973 -0.407557,0.521218 -0.887987,1.015101 -1.891898,3.067525 -2.164429,4.425014 -0.310644,1.547331 -0.278943,3.325482 0.08414,4.719444 0.958238,3.678923 4.182003,6.769974 7.844475,7.521538 0.891107,0.18286 3.584737,0.180131 4.491312,-0.0045 z"
     id="path4572" />
  <path
     style="fill:#59c4f2;fill-opacity:1;stroke:#59c4f2;stroke-width:0.0939759;stroke-opacity:1"
     d="M 35.270362,19.828916 V 17.949398 H 33.296868 31.323374 V 17.152509 16.35562 l 1.95,-0.0254 1.95,-0.0254 0.0254,-1.95 0.0254,-1.95 h 0.843876 0.843877 v 1.973494 1.973494 h 1.879518 1.879518 v 0.798795 0.798796 h -1.879518 -1.879518 v 1.879518 1.879518 h -0.845783 -0.845783 z"
     id="path4574" />
</svg>
