<?xml version="1.0" encoding="UTF-8" standalone="no"?>
<svg
   xmlns:dc="http://purl.org/dc/elements/1.1/"
   xmlns:cc="http://creativecommons.org/ns#"
   xmlns:rdf="http://www.w3.org/1999/02/22-rdf-syntax-ns#"
   xmlns:svg="http://www.w3.org/2000/svg"
   xmlns="http://www.w3.org/2000/svg"
   xmlns:sodipodi="http://sodipodi.sourceforge.net/DTD/sodipodi-0.dtd"
   xmlns:inkscape="http://www.inkscape.org/namespaces/inkscape"
   id="Layer_2"
   data-name="Layer 2"
   viewBox="0 0 73.36 78"
   version="1.1"
   sodipodi:docname="icons-digital-research-services CC.svg"
   inkscape:version="1.0.2-2 (e86c870879, 2021-01-15)">
  <metadata
     id="metadata4612">
    <rdf:RDF>
      <cc:Work
         rdf:about="">
        <dc:format>image/svg+xml</dc:format>
        <dc:type
           rdf:resource="http://purl.org/dc/dcmitype/StillImage" />
        <dc:title></dc:title>
      </cc:Work>
    </rdf:RDF>
  </metadata>
  <sodipodi:namedview
     pagecolor="#ffffff"
     bordercolor="#666666"
     borderopacity="1"
     objecttolerance="10"
     gridtolerance="10"
     guidetolerance="10"
     inkscape:pageopacity="0"
     inkscape:pageshadow="2"
     inkscape:window-width="1920"
     inkscape:window-height="1001"
     id="namedview4610"
     showgrid="false"
     inkscape:zoom="10.641026"
     inkscape:cx="36.68"
     inkscape:cy="38.812048"
     inkscape:window-x="-9"
     inkscape:window-y="-9"
     inkscape:window-maximized="1"
     inkscape:current-layer="Layer_2" />
  <defs
     id="defs4600">
    <style
       id="style4595">
      .cls-1 {
        fill: #fff;
      }

      .cls-2 {
        fill: #fcc75f;
      }

      .cls-3 {
        clip-path: url(#clippath);
      }

      .cls-4 {
        fill: none;
      }
    </style>
    <clipPath
       id="clippath">
      <rect
         class="cls-4"
         x="14.33"
         y="13"
         width="45"
         height="49"
         id="rect4597" />
    </clipPath>
  </defs>
  <g
     id="Layer_1-2"
     data-name="Layer 1">
    <rect
       class="cls-2"
       x="0"
       y="0"
       width="73.36"
       height="78"
       rx="36.68"
       ry="36.68"
       id="rect4602" />
    <g
       class="cls-3"
       clip-path="url(#clippath)"
       id="g4606">
      <path
         class="cls-1"
         d="m55.5,48.08c.15-.14.24-.34.24-.56,0-.43-.35-.78-.79-.78h-17.18v-4.16h9.92c.3.03.61.05.91.05.5,0,.98-.05,1.45-.14.47.09.95.14,1.45.14,4.32,0,7.82-3.47,7.82-7.75s-3.5-7.75-7.82-7.75c-.43,0-.85.04-1.26.11.49-1.15.76-2.4.76-3.7,0-5.82-5.35-10.54-11.96-10.54s-11.64,4.45-11.94,10.03c-.83-.22-1.71-.34-2.62-.34-5.56,0-10.06,4.46-10.06,9.97,0,5,3.72,9.14,8.56,9.86v.06h.45c.35.04.7.05,1.05.05s.71-.02,1.05-.05h10.65v4.16h-16.83c-.27,0-.51.13-.65.34-.36.08-.62.39-.62.76v5.14h-3.76v9.02h9.1v-9.02h-3.76v-4.68h16.34v4.68h-3.76v9.02h9.1v-9.02h-3.76v-4.68h16.34v4.68h-3.76v9.02h9.1v-9.02h-3.76v-4.9Zm-33.65,12.36h-5.94v-5.89h5.94v5.89Zm17.91,0h-5.94v-5.89h5.94v5.89Zm17.91,0h-5.94v-5.89h5.94v5.89Z"
         id="path4604" />
    </g>
  </g>
  <path
     style="fill:#00637d;stroke:#00637d;stroke-width:0.0939759;fill-opacity:1;stroke-opacity:1"
     d="M 35.129398,77.937367 C 25.01141,77.45117 15.748762,73.041808 9.2024476,65.595181 4.068754,59.755452 1.0305903,52.777734 0.20049001,44.920482 c -0.17207925,-1.628804 -0.17207925,-10.21216 0,-11.840964 C 1.3769984,21.943365 7.1653359,12.305748 16.38146,6.1381068 23.700735,1.2398803 32.905438,-0.84733116 41.74843,0.38602283 44.093342,0.7130736 46.221336,1.2102664 48.388409,1.9374137 61.171822,6.2268044 70.569756,17.228766 72.802491,30.518459 c 0.433597,2.580863 0.481221,3.432481 0.479559,8.575517 -0.0017,5.227082 -0.06107,6.152621 -0.572733,8.927711 -2.228056,12.084143 -10.445018,22.3244 -21.706944,27.051932 -4.993747,2.096275 -10.641109,3.115152 -15.872975,2.863748 z m -11.7,-20.471102 V 52.908434 H 21.54988 19.670362 v -2.30241 -2.30241 h 8.128915 8.128916 v 2.300423 2.300423 l -1.856024,0.02548 -1.856024,0.02548 v 4.510843 4.510843 l 4.581325,0.02439 4.581325,0.02439 V 57.46716 52.908435 h -1.879518 -1.879518 v -2.30241 -2.30241 h 8.128916 8.128916 v 2.30241 2.30241 h -1.879518 -1.879518 v 4.557831 4.557831 h 4.605721 4.605722 l -0.0244,-4.534337 -0.0244,-4.534337 -1.859012,-0.02549 -1.859013,-0.02549 0.03569,-2.464872 c 0.01963,-1.355678 0.06857,-2.60575 0.108753,-2.777938 0.08795,-0.376891 -0.06021,-0.70183 -0.388156,-0.85125 -0.162574,-0.07408 -2.736606,-0.104357 -8.870397,-0.104357 H 37.807711 V 44.62735 42.548677 l 7.259639,0.04503 c 8.4012,0.05212 8.220883,0.06605 9.890964,-0.764281 1.644121,-0.817424 2.790502,-1.952861 3.568313,-3.53425 0.637643,-1.29641 0.751985,-1.827766 0.748239,-3.477109 -0.003,-1.32814 -0.02042,-1.461254 -0.301049,-2.302409 -0.888402,-2.662909 -3.142757,-4.678377 -5.895022,-5.270344 -0.31012,-0.0667 -1.056164,-0.120119 -1.657875,-0.118705 l -1.09402,0.0026 0.182438,-0.525435 c 0.507319,-1.461117 0.64514,-3.551562 0.327612,-4.96914 -0.934135,-4.170364 -4.420327,-7.391737 -9.086323,-8.396103 -1.418579,-0.305353 -4.023549,-0.305188 -5.44653,3.75e-4 -1.291406,0.277281 -2.168535,0.576507 -3.211544,1.095593 -3.280288,1.632537 -5.473417,4.532082 -5.92261,7.830308 l -0.111683,0.820036 -0.56925,-0.11989 c -5.157705,-1.086264 -10.390013,2.141208 -11.77152,7.261089 -0.225386,0.835279 -0.252189,1.100458 -0.2558,2.530641 -0.0037,1.457532 0.01837,1.678194 0.25153,2.517003 0.987279,3.551825 3.705829,6.234501 7.27485,7.178853 l 0.92446,0.244609 6.601808,-0.02158 6.601807,-0.02158 v 2.076042 2.076043 h -8.492146 c -8.349848,0 -8.49615,0.0031 -8.731088,0.187952 -0.131417,0.103373 -0.282064,0.187951 -0.334768,0.187951 -0.0527,0 -0.183474,0.111427 -0.290599,0.247614 -0.186648,0.237285 -0.194773,0.358794 -0.194773,2.913253 v 2.665604 h -1.879518 -1.879518 v 4.557831 4.557831 h 4.557832 4.557831 z"
     id="path5175" />
  <path
     style="fill:#00637d;fill-opacity:1;stroke:#00637d;stroke-width:0.0939759;stroke-opacity:1"
     d="M 34.800482,77.942818 C 29.622579,77.580493 25.035522,76.398193 20.653212,74.296404 11.935531,70.115338 5.0162303,62.261913 1.9584224,53.07777 1.1508681,50.652275 0.55230604,47.981246 0.26730825,45.531325 -0.04816719,42.81941 0.01044952,33.979489 0.35922222,31.66988 1.5662302,23.676948 4.940366,16.741016 10.319759,11.194827 15.166,6.1983215 21.112972,2.7727509 27.799277,1.1262872 33.272194,-0.22138653 38.893999,-0.31725849 44.386024,0.84342364 55.192649,3.1272909 64.464923,10.295277 69.430164,20.203944 c 1.71873,3.429907 2.846785,6.979419 3.481813,10.955787 0.192211,1.203575 0.258371,2.089055 0.337633,4.518849 0.114133,3.498827 -0.01192,9.073449 -0.239789,10.604553 -0.596845,4.010326 -1.634862,7.449664 -3.290061,10.901204 -1.833974,3.824334 -4.104955,7.022523 -7.143827,10.060546 -2.314975,2.314326 -4.356729,3.921079 -7.006776,5.513962 -4.53954,2.728611 -9.913485,4.495119 -15.36506,5.050754 -1.084249,0.110508 -4.51828,0.195169 -5.403615,0.133219 z M 23.429398,57.466265 V 52.908434 H 21.54988 19.670362 v -2.30241 -2.30241 h 8.128915 8.128916 v 2.30241 2.30241 l -1.339157,8.46e-4 c -0.736536,4.69e-4 -1.561174,0.02748 -1.83253,0.06008 l -0.493373,0.05926 v 4.436147 4.436148 l 1.339156,0.06126 c 0.736537,0.03369 2.787561,0.06142 4.557832,0.06161 l 3.218674,3.14e-4 v -4.557831 -4.557831 h -1.879518 -1.879518 v -2.30241 -2.30241 h 8.128916 8.128916 v 2.30241 2.30241 h -1.879518 -1.879518 v 4.557831 4.557831 h 4.618833 4.618834 l -0.05009,-4.468604 c -0.02755,-2.457732 -0.07809,-4.496605 -0.112312,-4.530827 -0.03422,-0.03422 -0.870454,-0.07961 -1.858292,-0.100855 l -1.796069,-0.03863 0.07291,-2.643191 c 0.0401,-1.453756 0.07207,-2.743593 0.07105,-2.866307 -10e-4,-0.122712 -0.09174,-0.313014 -0.201594,-0.422891 l -0.199736,-0.199777 -8.73719,-0.0307 -8.73719,-0.0307 v -2.06156 -2.06156 l 7.306627,0.0038 c 8.478868,0.0044 8.284086,0.01951 9.79941,-0.758856 1.743038,-0.895337 2.810396,-1.956585 3.612567,-3.591887 0.605601,-1.234575 0.707902,-1.728623 0.707902,-3.418706 0,-1.325859 -0.01993,-1.491656 -0.267982,-2.229838 -0.873512,-2.59944 -2.967962,-4.554492 -5.59705,-5.22453 -0.549266,-0.139984 -1.04875,-0.189446 -1.913067,-0.189446 -1.078982,0 -1.164098,-0.01276 -1.097236,-0.164458 0.03987,-0.09045 0.179056,-0.54506 0.309309,-1.010241 0.210227,-0.750789 0.237519,-1.030493 0.242993,-2.490361 0.0051,-1.355874 -0.02535,-1.751811 -0.173364,-2.255422 -1.053364,-3.584024 -3.754553,-6.309471 -7.493015,-7.560311 -1.581612,-0.529186 -2.465522,-0.641863 -4.638299,-0.59127 -1.714968,0.03993 -1.976131,0.069 -2.983045,0.332006 -4.575145,1.195035 -7.85876,4.610405 -8.442187,8.780931 l -0.111367,0.796089 -0.622062,-0.140233 c -0.89507,-0.201781 -3.045262,-0.192392 -4.005194,0.01749 -2.980693,0.651695 -5.603211,2.664806 -6.965159,5.346631 -0.178189,0.350876 -0.459947,1.027503 -0.626127,1.503615 l -0.302147,0.865659 -2.82e-4,2.06747 -2.82e-4,2.067469 0.302419,0.865659 c 1.184716,3.391201 3.577577,5.686872 6.980714,6.697184 l 0.986747,0.292941 6.648795,-0.0066 6.648795,-0.0066 v 2.065514 2.065515 l -8.481325,0.02768 -8.481325,0.02768 -0.422892,0.241995 c -0.621911,0.355882 -0.646374,0.483332 -0.652527,3.399572 l -0.0053,2.51386 h -1.879518 -1.879518 v 4.557831 4.557831 h 4.557832 4.557831 z"
     id="path5177" />
  <path
     style="fill:#00637d;fill-opacity:1;stroke:#00637d;stroke-width:0.0939759;stroke-opacity:1"
     d="M 51.810121,57.513253 V 54.6 h 2.913253 2.913253 v 2.913253 2.913253 h -2.913253 -2.913253 z"
     id="path5179" />
  <path
     style="fill:#00637d;fill-opacity:1;stroke:#00637d;stroke-width:0.0939759;stroke-opacity:1"
     d="M 33.860723,57.513253 V 54.6 h 2.913253 2.913253 v 2.913253 2.913253 h -2.913253 -2.913253 z"
     id="path5181" />
  <path
     style="fill:#00637d;fill-opacity:1;stroke:#00637d;stroke-width:0.0939759;stroke-opacity:1"
     d="M 15.911326,57.513253 V 54.6 h 2.960241 2.960241 v 2.913253 2.913253 h -2.960241 -2.960241 z"
     id="path5183" />
</svg>
