<?xml version="1.0" encoding="UTF-8" standalone="no"?>
<svg
   xmlns:dc="http://purl.org/dc/elements/1.1/"
   xmlns:cc="http://creativecommons.org/ns#"
   xmlns:rdf="http://www.w3.org/1999/02/22-rdf-syntax-ns#"
   xmlns:svg="http://www.w3.org/2000/svg"
   xmlns="http://www.w3.org/2000/svg"
   xmlns:sodipodi="http://sodipodi.sourceforge.net/DTD/sodipodi-0.dtd"
   xmlns:inkscape="http://www.inkscape.org/namespaces/inkscape"
   id="Layer_2"
   data-name="Layer 2"
   viewBox="0 0 73.36 78"
   version="1.1"
   sodipodi:docname="icons-public-health-measures CC.svg"
   inkscape:version="1.0.2-2 (e86c870879, 2021-01-15)">
  <metadata
     id="metadata1571">
    <rdf:RDF>
      <cc:Work
         rdf:about="">
        <dc:format>image/svg+xml</dc:format>
        <dc:type
           rdf:resource="http://purl.org/dc/dcmitype/StillImage" />
        <dc:title></dc:title>
      </cc:Work>
    </rdf:RDF>
  </metadata>
  <sodipodi:namedview
     pagecolor="#ffffff"
     bordercolor="#666666"
     borderopacity="1"
     objecttolerance="10"
     gridtolerance="10"
     guidetolerance="10"
     inkscape:pageopacity="0"
     inkscape:pageshadow="2"
     inkscape:window-width="1920"
     inkscape:window-height="1001"
     id="namedview1569"
     showgrid="false"
     inkscape:zoom="10.641026"
     inkscape:cx="36.68"
     inkscape:cy="38.812048"
     inkscape:window-x="-9"
     inkscape:window-y="-9"
     inkscape:window-maximized="1"
     inkscape:current-layer="Layer_2" />
  <defs
     id="defs1543">
    <style
       id="style1538">
      .cls-1 {
        fill: #fff;
      }

      .cls-2 {
        fill: #fcc75f;
      }

      .cls-3 {
        clip-path: url(#clippath);
      }

      .cls-4 {
        stroke: #fcc75f;
      }

      .cls-4, .cls-5, .cls-6 {
        fill: none;
      }

      .cls-4, .cls-6 {
        stroke-miterlimit: 10;
        stroke-width: 2px;
      }

      .cls-6 {
        stroke: #fff;
        stroke-linecap: round;
      }
    </style>
    <clipPath
       id="clippath">
      <rect
         class="cls-5"
         x="19"
         y="12"
         width="34"
         height="50"
         id="rect1540" />
    </clipPath>
  </defs>
  <g
     id="Layer_1-2"
     data-name="Layer 1">
    <rect
       class="cls-2"
       x="0"
       y="0"
       width="73.36"
       height="78"
       rx="36.68"
       ry="36.68"
       id="rect1545" />
    <g
       class="cls-3"
       clip-path="url(#clippath)"
       id="g1565">
      <g
         id="g1563">
        <path
           class="cls-1"
           d="m53,18.88H19v43.12h34V18.88Z"
           id="path1547" />
        <path
           class="cls-6"
           d="m43.31,13.65h-14.61v9.69h14.61v-9.69Z"
           id="path1549" />
        <path
           class="cls-4"
           d="m43.31,18.59v4.74h-14.61v-4.74"
           id="path1551" />
        <path
           class="cls-4"
           d="m23.31,33.93h9.57"
           id="path1553" />
        <path
           class="cls-4"
           d="m28.09,29.21v9.44"
           id="path1555" />
        <path
           class="cls-4"
           d="m23.92,53.92h8.96"
           id="path1557" />
        <path
           class="cls-4"
           d="m23.92,47.33h8.96"
           id="path1559" />
        <path
           class="cls-4"
           d="m37.28,47.93l3.64,5.99,7.89-11.38"
           id="path1561" />
      </g>
    </g>
  </g>
  <path
     style="fill:#00807d;fill-opacity:1;stroke-width:0.0939759"
     d="M 35.129398,77.937367 C 25.01141,77.45117 15.748762,73.041808 9.2024476,65.595181 4.068754,59.755452 1.0305903,52.777734 0.20049001,44.920482 c -0.17207925,-1.628804 -0.17207925,-10.21216 0,-11.840964 C 1.3769984,21.943365 7.1653359,12.305748 16.38146,6.1381068 23.700735,1.2398803 32.905438,-0.84733116 41.74843,0.38602283 44.093342,0.7130736 46.221336,1.2102664 48.388409,1.9374137 61.171822,6.2268044 70.569756,17.228766 72.802491,30.518459 c 0.433597,2.580863 0.481221,3.432481 0.479559,8.575517 -0.0017,5.227082 -0.06107,6.152621 -0.572733,8.927711 -2.228056,12.084143 -10.445018,22.3244 -21.706944,27.051932 -4.993747,2.096275 -10.641109,3.115152 -15.872975,2.863748 z m 17.90241,-37.48074 v -21.56747 h -4.321625 -4.321625 l -0.02476,-3.124699 -0.02476,-3.124699 -8.340361,-0.024 -8.340361,-0.024 v 3.148701 3.148701 H 23.335422 19.01253 V 40.456631 62.0241 h 17.009639 17.009639 z"
     id="path3310" />
  <path
     style="fill:#00807d;fill-opacity:1;stroke-width:0.0939759"
     d="m 27.752289,21.473494 v -2.866265 h 0.939759 0.93976 v 1.879518 1.879518 h 6.343373 6.343374 l 1.3e-5,-1.762048 1.3e-5,-1.762048 -6.296399,0.0248 -6.296399,0.0248 v -2.115766 -2.115767 h 6.296386 6.296386 v 1.973494 1.973494 h 0.986747 0.986746 v 2.866265 2.866265 h -8.269879 -8.26988 z"
     id="path3312" />
  <path
     style="fill:#00807d;fill-opacity:1;stroke-width:0.0939759"
     d="M 27.094458,36.744578 V 34.86506 H 25.21494 23.335422 v -0.939759 -0.939759 h 1.879518 1.879518 v -1.879518 -1.879518 h 0.986747 0.986747 v 1.879518 1.879518 h 1.879518 1.879518 v 0.939759 0.939759 H 30.94747 29.067952 v 1.879518 1.879518 h -0.986747 -0.986747 z"
     id="path3314" />
  <path
     style="fill:#00807d;fill-opacity:1;stroke-width:0.0939759"
     d="M 23.993253,47.316867 V 46.33012 h 4.416868 4.416867 v 0.986747 0.986747 h -4.416867 -4.416868 z"
     id="path3316" />
  <path
     style="fill:#00807d;fill-opacity:1;stroke-width:0.0939759"
     d="m 23.993253,53.895181 v -0.986747 h 4.416868 4.416867 v 0.986747 0.986747 h -4.416867 -4.416868 z"
     id="path3318" />
  <path
     style="fill:#00807d;fill-opacity:1;stroke-width:0.0939759;stroke:#00807d;stroke-opacity:1"
     d="m 38.658243,52.062377 c -1.199787,-1.972795 -2.16743,-3.598837 -2.150318,-3.613425 0.124614,-0.106242 1.611663,-0.991811 1.630123,-0.970773 0.01286,0.01465 0.644629,1.052152 1.403938,2.305556 0.75931,1.253404 1.409213,2.277556 1.444228,2.275893 0.03502,-0.0017 1.625385,-2.261984 3.534154,-5.022937 2.18444,-3.159703 3.509702,-4.995566 3.576309,-4.954207 0.634202,0.393799 1.450888,1.025151 1.422188,1.099444 -0.05131,0.132817 -8.412425,12.189888 -8.558778,12.342109 -0.09889,0.102853 -0.510369,-0.515957 -2.301844,-3.46166 z"
     id="path3320" />
  <path
     style="fill:#00807d;fill-opacity:1;stroke:#00807d;stroke-width:0.0939759;stroke-opacity:1"
     d="M 27.094458,36.744578 V 34.86506 H 25.21494 23.335422 v -0.939759 -0.939759 h 1.879518 1.879518 v -1.879518 -1.879518 h 0.986747 0.986747 v 1.879518 1.879518 h 1.879518 1.879518 v 0.939759 0.939759 H 30.94747 29.067952 v 1.879518 1.879518 h -0.986747 -0.986747 z"
     id="path3937" />
  <path
     style="fill:#00807d;fill-opacity:1;stroke:#00807d;stroke-width:0.0939759;stroke-opacity:1"
     d="m 27.752289,21.473494 v -2.866265 h 0.939759 0.93976 v 1.879518 1.879518 h 6.343373 6.343374 v -1.799802 -1.799801 l -6.296386,0.05112 -6.296386,0.05113 V 16.764576 14.66024 h 6.296386 6.296386 v 1.973494 1.973494 h 0.986747 0.986746 v 2.866265 2.866265 h -8.269879 -8.26988 z"
     id="path3939" />
  <path
     style="fill:#00807d;fill-opacity:1;stroke:#00807d;stroke-width:0.0939759;stroke-opacity:1"
     d="M 23.993253,47.316867 V 46.33012 h 4.416868 4.416867 v 0.986747 0.986747 h -4.416867 -4.416868 z"
     id="path3941" />
  <path
     style="fill:#00807d;fill-opacity:1;stroke:#00807d;stroke-width:0.0939759;stroke-opacity:1"
     d="m 23.993253,53.895181 v -0.986747 h 4.416868 4.416867 v 0.986747 0.986747 h -4.416867 -4.416868 z"
     id="path3943" />
  <path
     style="fill:#00807d;fill-opacity:1;stroke:#00807d;stroke-width:0.0939759;stroke-opacity:1"
     d="M 40.177958,54.529518 C 39.81639,53.973886 38.838121,52.382069 38.004025,50.992147 l -1.516536,-2.52713 0.307701,-0.208307 c 0.169236,-0.114569 0.542254,-0.340363 0.828928,-0.501765 l 0.521227,-0.293457 1.217328,1.985366 c 0.66953,1.091952 1.28802,2.109804 1.374423,2.261895 0.0864,0.15209 0.176298,0.29573 0.199768,0.319199 0.0527,0.0527 0.153008,-0.08696 2.978573,-4.147225 1.258919,-1.809036 2.672735,-3.815316 3.141814,-4.4584 0.469079,-0.643083 0.881836,-1.212033 0.91724,-1.264331 0.08349,-0.123334 0.373426,0.03253 1.053736,0.566486 l 0.529004,0.415197 -0.488518,0.725946 c -0.63538,0.944186 -6.687328,9.675252 -7.489401,10.804861 -0.339474,0.478102 -0.64574,0.869277 -0.680592,0.869277 -0.03485,0 -0.359195,-0.454608 -0.720762,-1.010241 z"
     id="path3945" />
  <path
     style="fill:#00807d;fill-opacity:1;stroke:#00807d;stroke-width:0.0939759;stroke-opacity:1"
     d="M 34.095663,77.84612 C 25.274866,77.127976 17.335864,73.578192 11.224168,67.619535 5.8081435,62.33913 2.3095866,55.949806 0.83069942,48.638211 0.1838309,45.440104 0.17379297,45.29303 0.17288355,39 0.17198294,32.767976 0.18540122,32.56186 0.78773231,29.555422 2.0306289,23.351705 4.7412165,17.711899 8.752665,12.983122 9.2312538,12.418951 10.287106,11.306256 11.099004,10.510466 16.893613,4.8308157 23.857485,1.4757415 32.169157,0.35922859 c 1.304182,-0.17519171 2.006107,-0.20908587 4.416867,-0.21327915 1.779725,-0.003096 3.258133,0.041047 3.9,0.11644719 6.217098,0.73032215 11.407339,2.59733067 16.424196,5.90803347 5.194207,3.4277387 9.559354,8.3127889 12.372796,13.8464369 2.17054,4.269151 3.559111,9.219997 3.869972,13.798097 0.157103,2.313669 0.05649,10.732353 -0.14501,12.134012 -1.079825,7.511275 -3.945337,13.8995 -8.705524,19.407644 -1.058546,1.224873 -3.3706,3.47337 -4.515771,4.391638 -5.503163,4.412767 -11.444509,6.920464 -18.783791,7.928179 -1.044667,0.143438 -5.795955,0.260157 -6.907229,0.169683 z M 53.031808,40.456627 v -21.56747 h -4.322892 -4.322892 v -3.148193 -3.148193 h -8.363855 -8.363855 v 3.148193 3.148193 H 23.335422 19.01253 v 21.56747 21.567469 h 17.009639 17.009639 z"
     id="path3947" />
</svg>
