<?xml version="1.0" encoding="UTF-8" standalone="no"?>
<svg
   xmlns:dc="http://purl.org/dc/elements/1.1/"
   xmlns:cc="http://creativecommons.org/ns#"
   xmlns:rdf="http://www.w3.org/1999/02/22-rdf-syntax-ns#"
   xmlns:svg="http://www.w3.org/2000/svg"
   xmlns="http://www.w3.org/2000/svg"
   xmlns:sodipodi="http://sodipodi.sourceforge.net/DTD/sodipodi-0.dtd"
   xmlns:inkscape="http://www.inkscape.org/namespaces/inkscape"
   id="Layer_2"
   data-name="Layer 2"
   viewBox="0 0 74.33 78"
   version="1.1"
   sodipodi:docname="icons-trainings CC.svg"
   inkscape:version="1.0.2-2 (e86c870879, 2021-01-15)">
  <metadata
     id="metadata3374">
    <rdf:RDF>
      <cc:Work
         rdf:about="">
        <dc:format>image/svg+xml</dc:format>
        <dc:type
           rdf:resource="http://purl.org/dc/dcmitype/StillImage" />
        <dc:title></dc:title>
      </cc:Work>
    </rdf:RDF>
  </metadata>
  <sodipodi:namedview
     pagecolor="#ffffff"
     bordercolor="#666666"
     borderopacity="1"
     objecttolerance="10"
     gridtolerance="10"
     guidetolerance="10"
     inkscape:pageopacity="0"
     inkscape:pageshadow="2"
     inkscape:window-width="1920"
     inkscape:window-height="1001"
     id="namedview3372"
     showgrid="false"
     inkscape:zoom="10.641026"
     inkscape:cx="37.165001"
     inkscape:cy="38.812048"
     inkscape:window-x="-9"
     inkscape:window-y="-9"
     inkscape:window-maximized="1"
     inkscape:current-layer="Layer_2" />
  <defs
     id="defs3354">
    <style
       id="style3349">
      .cls-1 {
        fill: #fff;
      }

      .cls-2 {
        fill: #fcc75f;
      }

      .cls-3 {
        clip-path: url(#clippath);
      }

      .cls-4, .cls-5 {
        fill: none;
      }

      .cls-5 {
        stroke: #fff;
        stroke-linecap: round;
        stroke-miterlimit: 10;
        stroke-width: 3px;
      }
    </style>
    <clipPath
       id="clippath">
      <rect
         class="cls-4"
         x="12.33"
         y="23"
         width="62"
         height="47"
         id="rect3351" />
    </clipPath>
  </defs>
  <g
     id="Layer_1-2"
     data-name="Layer 1">
    <rect
       class="cls-2"
       x="0"
       y="0"
       width="73.36"
       height="78"
       rx="36.68"
       ry="36.68"
       id="rect3356" />
    <g
       class="cls-3"
       clip-path="url(#clippath)"
       id="g3368">
      <g
         id="g3366">
        <path
           class="cls-5"
           d="m34.81,47.55l-12.13-14.96"
           id="path3358" />
        <path
           class="cls-5"
           d="m38.12,60.97H13.85V24.54h36.75"
           id="path3360" />
        <path
           class="cls-1"
           d="m66.66,33.29c1.22-3.51-.59-7.37-4.05-8.61-3.46-1.24-7.26.6-8.48,4.11s.59,7.37,4.05,8.61c3.46,1.24,7.26-.6,8.48-4.11Z"
           id="path3362" />
        <path
           class="cls-1"
           d="m59.99,39.9c-7.69.24-13.77,6.83-13.77,14.71v2.36l-6.64-6.74c-.62-.63-1.64-.63-2.27,0-.57.58-.62,1.55-.11,2.18l9.06,11.15s.07.05.13.05c.26.54.8.92,1.43.92.8,0,1.52-.65,1.6-1.46l1.36-8.95c.08-.49.4-.81.88-.81s.88.41.88.89v14.31h15.45l3.12-.08c.08.73.64,1.38,1.36,1.54,1.04.16,1.84-.65,1.84-1.63v-14.06c.24-8.13-6.33-14.63-14.33-14.39h0Z"
           id="path3364" />
      </g>
    </g>
  </g>
  <path
     style="fill:#8ba5d6;stroke:#8ba5d6;stroke-width:0.0939759;fill-opacity:1;stroke-opacity:1"
     d="M 34.496715,77.905602 C 30.421553,77.64018 26.487081,76.74596 22.692712,75.222807 21.352947,74.684992 18.565802,73.251552 17.267916,72.432811 11.936657,69.069711 7.6786925,64.593405 4.6489162,59.166729 2.3327685,55.018244 0.92274589,50.642523 0.27021468,45.578313 0.06965094,44.021764 -0.0254071,36.034177 0.13273071,34.025738 0.73820662,26.335853 3.3191611,19.763868 8.1394376,13.637948 9.1202526,12.391464 12.077887,9.409935 13.389097,8.3458769 23.357894,0.25611184 36.576154,-2.111585 48.644692,2.0307828 c 5.380727,1.8468639 9.968163,4.7281123 14.035513,8.8153372 4.043238,4.062995 6.995742,8.856009 8.792638,14.273725 0.763657,2.302456 1.354875,5.048765 1.656794,7.696083 0.244661,2.145262 0.243196,10.185654 -0.0022,12.339494 -0.09424,0.826988 -0.200978,1.672771 -0.237195,1.879518 l -0.06585,0.375903 -0.467625,-0.784713 c -3.100976,-5.203692 -9.359607,-7.816589 -15.211498,-6.350604 -2.566228,0.642879 -4.698034,1.858068 -6.588634,3.755706 -1.166095,1.170435 -2.037744,2.384719 -2.763282,3.849491 -1.128431,2.278166 -1.503779,3.911267 -1.593122,6.931506 l -0.06049,2.044759 -3.334035,-3.398084 c -3.391019,-3.456164 -3.721437,-3.738858 -4.375571,-3.743587 -0.411752,-0.003 -1.089087,0.370364 -1.330091,0.733134 -0.272359,0.409968 -0.354098,1.004661 -0.198706,1.44569 0.11674,0.33133 8.717818,11.028479 9.666165,12.021797 0.648529,0.679282 1.181833,0.806596 1.938914,0.462869 0.801126,-0.363723 0.804712,-0.3762 1.585135,-5.517181 0.383276,-2.524798 0.721848,-4.696265 0.752385,-4.825481 0.153628,-0.650096 0.945441,-0.890231 1.408509,-0.427163 l 0.230668,0.230667 v 7.334393 7.334392 l 4.393374,0.0039 4.393373,0.0039 -0.422891,0.386287 c -0.679363,0.620559 -2.168514,1.791648 -3.135931,2.466137 -5.095365,3.552519 -11.022472,5.755745 -17.190141,6.389923 -1.741037,0.179018 -4.49987,0.24639 -6.024142,0.147112 z m 4.198413,-15.541016 c 0.166321,-0.07116 0.427313,-0.262199 0.579981,-0.424522 0.233381,-0.24814 0.283322,-0.388391 0.313655,-0.880851 0.03052,-0.495447 0.0022,-0.635629 -0.183922,-0.909553 -0.120998,-0.17811 -0.367866,-0.4107 -0.548594,-0.516868 C 38.53023,59.441274 38.436763,59.439558 26.945121,59.41412 L 15.362591,59.38848 V 42.709903 26.031325 h 17.833394 c 17.185234,0 17.845295,-0.0063 18.160843,-0.17424 0.699516,-0.372223 0.973837,-1.439814 0.536659,-2.088542 -0.117524,-0.174395 -0.356369,-0.41324 -0.530764,-0.530764 L 51.045639,23.024096 H 31.700501 12.355362 v 19.73494 19.73494 h 13.018682 c 10.84551,0 13.06916,-0.0216 13.321084,-0.12939 z M 35.574771,48.841739 C 36.25706,48.381944 36.517666,47.550325 36.182543,46.90227 35.897597,46.351245 23.717246,31.434021 23.418729,31.270482 c -0.411949,-0.225682 -1.15951,-0.214589 -1.549165,0.02299 -0.714023,0.435345 -0.904431,1.403578 -0.422033,2.146045 0.142139,0.218769 2.96494,3.733709 6.272892,7.810979 3.891078,4.796012 6.13058,7.481602 6.343373,7.606915 0.454308,0.267541 1.100668,0.260839 1.510975,-0.01567 z m 26.97479,-11.404345 c 3.259558,-1.150918 5.125031,-4.610624 4.312806,-7.998534 -0.572917,-2.389719 -2.280048,-4.177913 -4.699776,-4.922944 -0.897904,-0.276464 -2.454023,-0.302434 -3.383132,-0.05646 -1.009603,0.267282 -2.095832,0.870546 -2.871039,1.594505 -3.499689,3.268323 -2.662789,8.949921 1.636387,11.109201 0.922349,0.463254 1.713001,0.616937 3.020194,0.587049 1.028075,-0.02351 1.275784,-0.06255 1.98456,-0.312814 z"
     id="path3955" />
  <path
     style="fill:#8ba5d6;fill-opacity:1;stroke:#8ba5d6;stroke-width:0.0939759;stroke-opacity:1"
     d="M 34.226794,77.900236 C 30.120506,77.605722 25.619605,76.522558 22.098657,74.981541 20.985623,74.494397 18.559272,73.229757 17.477049,72.572708 13.819436,70.352064 10.108838,66.982106 7.4377696,63.45505 3.6897438,58.505909 1.3597711,52.902473 0.3756427,46.471084 -0.01800079,43.89858 -0.05685171,34.796915 0.31426087,32.091068 0.92248436,27.656404 1.937034,24.247891 3.7543221,20.533735 5.760819,16.432876 8.4221804,12.887342 11.943231,9.624264 c 5.699616,-5.2820296 12.9966,-8.5315757 21.227794,-9.4533168 1.3354,-0.14954007 5.608802,-0.15040323 7.001205,-0.001414 2.778018,0.29725204 5.778342,0.9464902 8.279751,1.7916497 1.932024,0.6527797 2.916123,1.0646035 4.782899,2.0015402 3.537054,1.7752495 6.506784,3.9360908 9.398482,6.8385439 3.803572,3.817719 6.530245,8.055849 8.418281,13.084728 0.824834,2.196989 1.552244,5.117242 1.962306,7.87786 0.464332,3.125965 0.395112,12.356701 -0.114742,15.301509 l -0.07035,0.406329 -0.371961,-0.636007 c -0.944788,-1.615463 -2.417694,-3.244055 -3.88342,-4.293896 -1.651389,-1.182825 -3.903891,-2.122851 -5.894016,-2.459722 -1.18077,-0.199871 -3.359973,-0.204097 -4.46512,-0.0087 -4.799311,0.84873 -8.660717,3.911539 -10.713983,8.498168 -0.873559,1.951375 -1.174389,3.48137 -1.294,6.581164 L 46.1397,56.880182 43.519418,54.212983 C 39.26188,49.87921 38.849685,49.545874 38.067435,49.80404 c -0.748726,0.247101 -1.184362,0.830764 -1.184362,1.586801 0,0.56288 -0.127354,0.384016 3.523727,4.948971 5.228482,6.537181 6.312931,7.81448 6.851692,8.070139 0.433361,0.205644 0.67408,0.189997 1.257806,-0.08176 0.765151,-0.356217 0.755671,-0.321692 1.613404,-5.875182 0.731791,-4.738061 0.714074,-4.652347 1.009665,-4.884859 0.310729,-0.244419 0.781789,-0.242299 1.096093,0.0049 l 0.247613,0.194772 v 7.369359 7.369358 l 4.393374,0.02442 4.393373,0.02442 -0.751807,0.645575 c -3.421347,2.9379 -7.430566,5.233192 -11.749188,6.726452 -3.419401,1.182332 -6.574258,1.790264 -10.253338,1.975786 -2.070437,0.104404 -2.798306,0.103896 -4.288693,-0.003 z m 4.643543,-15.666349 c 0.459248,-0.285585 0.629946,-0.571004 0.698229,-1.167488 0.04872,-0.425583 0.02476,-0.546012 -0.162984,-0.819204 -0.121054,-0.176151 -0.339414,-0.408741 -0.485243,-0.516867 -0.257717,-0.191087 -0.393268,-0.198261 -4.839759,-0.256146 -2.516038,-0.03275 -7.756874,-0.06447 -11.646302,-0.07048 l -7.071687,-0.01093 V 42.712048 26.031325 l 16.610241,-0.0075 c 9.135633,-0.0041 17.238208,-0.03665 18.005722,-0.0723 l 1.395482,-0.06482 0.267977,-0.299919 c 0.147388,-0.164955 0.31637,-0.479634 0.375516,-0.699284 0.152134,-0.564982 9.4e-5,-0.996946 -0.519361,-1.475783 L 51.077634,23.024096 H 31.716498 12.355362 v 19.74281 19.742808 l 13.086145,-0.03136 13.086145,-0.03136 z M 35.311995,48.926032 c 0.365706,-0.156475 0.771246,-0.573945 0.907268,-0.933957 0.16884,-0.446871 0.113206,-0.777592 -0.212131,-1.261041 -0.307988,-0.457668 -2.816621,-3.615467 -4.760575,-5.99248 -4.871592,-5.95685 -7.588508,-9.230081 -7.819783,-9.420961 -0.0782,-0.06454 -0.335607,-0.143859 -0.572018,-0.176263 -1.12,-0.153513 -1.967051,0.940964 -1.532729,1.980442 0.194279,0.464976 8.833122,11.185688 11.882424,14.745962 0.990401,1.156363 1.398918,1.361499 2.107544,1.058298 z M 62.444519,37.432547 c 2.978813,-0.974097 4.967834,-4.179678 4.515009,-7.276562 -0.349403,-2.389586 -1.718376,-4.247141 -3.86719,-5.247376 -0.911377,-0.42423 -1.60169,-0.56885 -2.715289,-0.56885 -1.835011,0 -3.218946,0.570367 -4.571619,1.884122 -1.360221,1.321085 -2.032811,2.927179 -2.024836,4.835155 0.0077,1.849016 0.648607,3.402233 1.942481,4.707745 1.121221,1.131306 2.343813,1.769819 3.667227,1.915253 1.024869,0.112625 2.253867,0.01223 3.054217,-0.249487 z"
     id="path3957" />
</svg>
