<?xml version="1.0" encoding="UTF-8" standalone="no"?>
<svg
   xmlns:dc="http://purl.org/dc/elements/1.1/"
   xmlns:cc="http://creativecommons.org/ns#"
   xmlns:rdf="http://www.w3.org/1999/02/22-rdf-syntax-ns#"
   xmlns:svg="http://www.w3.org/2000/svg"
   xmlns="http://www.w3.org/2000/svg"
   xmlns:sodipodi="http://sodipodi.sourceforge.net/DTD/sodipodi-0.dtd"
   xmlns:inkscape="http://www.inkscape.org/namespaces/inkscape"
   width="73"
   height="78"
   viewBox="0 0 73 78"
   fill="none"
   version="1.1"
   id="svg7086"
   sodipodi:docname="Icons_ELSI_v3 CC.svg"
   inkscape:version="1.0.2-2 (e86c870879, 2021-01-15)">
  <metadata
     id="metadata7090">
    <rdf:RDF>
      <cc:Work
         rdf:about="">
        <dc:format>image/svg+xml</dc:format>
        <dc:type
           rdf:resource="http://purl.org/dc/dcmitype/StillImage" />
        <dc:title></dc:title>
      </cc:Work>
    </rdf:RDF>
  </metadata>
  <sodipodi:namedview
     pagecolor="#ffffff"
     bordercolor="#666666"
     borderopacity="1"
     objecttolerance="10"
     gridtolerance="10"
     guidetolerance="10"
     inkscape:pageopacity="0"
     inkscape:pageshadow="2"
     inkscape:window-width="1920"
     inkscape:window-height="1001"
     id="namedview7088"
     showgrid="false"
     inkscape:zoom="10.641026"
     inkscape:cx="36.5"
     inkscape:cy="38.812048"
     inkscape:window-x="-9"
     inkscape:window-y="-9"
     inkscape:window-maximized="1"
     inkscape:current-layer="svg7086" />
  <g
     clip-path="url(#clip0_709_416)"
     id="g7079">
    <path
       d="M20.6658 66.6004C17.3752 63.2908 14.0817 59.9841 10.7867 56.6775C10.0885 55.9774 9.47857 55.9849 8.76844 56.694C7.59785 57.8703 6.43323 59.0481 5.26562 60.226C8.22127 65.1461 12.2817 69.3061 17.1196 72.3634C18.2827 71.1375 19.4593 69.8965 20.6598 68.6376C21.3415 67.924 21.3565 67.302 20.6643 66.6004H20.6658Z"
       fill="#FCC75D"
       id="path7071" />
    <path
       d="M34.0682 54.5501C37.0463 54.5501 40.0214 54.5501 42.9995 54.5456C43.294 54.5456 43.599 54.5381 43.8935 54.484C45.1328 54.2527 45.982 52.9952 45.7607 51.7513C45.5275 50.4488 44.5752 49.7186 43.0652 49.7186C38.791 49.7096 34.5153 49.7231 30.241 49.7066C29.8149 49.7021 29.3589 49.633 28.9613 49.4798C25.2447 48.054 21.564 48.1892 17.958 49.8133C15.5704 50.8889 13.7944 52.6662 12.5879 54.9423C15.7349 58.1122 18.849 61.2461 21.9826 64.404C22.0887 64.3093 22.2322 64.1982 22.3518 64.066C23.8618 62.3969 25.7246 61.7403 27.9716 61.7779C32.9231 61.856 37.879 61.8019 42.835 61.8019C45.2151 61.7974 47.4097 61.1424 48.981 59.3156C52.6109 55.094 56.1361 50.7823 59.6838 46.4901C60.5494 45.443 60.4179 44.0007 59.4461 43.1309C58.4773 42.2655 57.0421 42.3271 56.0988 43.3006C53.5423 45.9267 50.9993 48.5648 48.4592 51.2074C48.3232 51.3472 48.2051 51.574 48.2006 51.7633C48.1752 54.9798 46.1943 56.9659 42.9815 56.9704C40.0034 56.9749 37.0284 56.9704 34.0503 56.9704C32.9709 56.9704 32.3968 56.5422 32.4058 55.746C32.4103 54.9543 32.9694 54.5501 34.0682 54.5501Z"
       fill="#FCC75D"
       id="path7073" />
    <path
       d="M36.5007 0C16.3405 0 0 16.4206 0 36.6796V41.3219C0 47.3493 1.47408 53.0206 4.03803 58.0384C5.0367 57.0333 6.03836 56.0313 7.02806 55.0217C7.87274 54.1564 8.85795 53.6981 10.0809 53.7522C10.2648 53.7612 10.5443 53.617 10.634 53.4593C14.6182 46.4388 23.3237 44.7157 29.5758 47.1314C29.8838 47.2471 30.2322 47.2997 30.5641 47.2997C34.6589 47.3087 38.7567 47.3252 42.8516 47.2952C44.5215 47.2832 45.9612 47.7399 47.2738 49.2738C47.3934 49.0349 47.4457 48.796 47.5937 48.6428C49.8662 46.2721 52.1476 43.9059 54.4409 41.5562C56.7014 39.2396 60.5705 39.8045 62.0879 42.6574C62.9281 44.2319 62.6575 46.6762 61.4525 48.1365C59.2459 50.8076 57.0213 53.4668 54.8027 56.1304C53.662 57.4991 52.5049 58.8557 51.3851 60.2453C49.2233 62.9165 46.3918 64.1785 43.0115 64.2025C37.8388 64.2356 32.6616 64.2566 27.4873 64.186C25.7068 64.1649 24.6079 65.167 23.524 66.3133C23.4418 66.4004 23.4463 66.6108 23.4702 66.755C23.7408 68.1642 23.3671 69.36 22.3385 70.3666C21.2531 71.4303 20.1752 72.5014 19.0973 73.5726C24.27 76.397 30.1978 78.003 36.4993 78.003C56.6595 78.003 73 61.5779 73 41.3234V36.6811C73 16.4206 56.6595 0 36.5007 0ZM36.9747 41.0184C29.6641 41.0274 23.7558 35.0857 23.7602 27.7392C23.7692 20.4258 29.676 14.4886 36.9493 14.4811C44.2479 14.4766 50.1711 20.4333 50.1592 27.7723C50.1517 35.0947 44.2614 41.0094 36.9747 41.0184Z"
       fill="#FCC75D"
       id="path7075" />
    <path
       d="M37.4516 22.1372C38.6297 22.1372 39.6254 22.4182 40.4416 22.9785C41.2534 23.5434 41.841 24.3021 42.1983 25.2621H44.9102C44.4587 23.5674 43.5976 22.2244 42.3209 21.2343C41.0456 20.2443 39.437 19.75 37.4965 19.75C35.6008 19.75 33.9966 20.2863 32.693 21.3575C31.3878 22.4332 30.5312 23.8679 30.129 25.6692H28.0898V26.9522H29.9481C29.9197 27.3398 29.9078 27.6403 29.9078 27.8506C29.9078 28.0895 29.9197 28.4531 29.9481 28.9308H28.0898V30.1928H30.1739C30.5925 31.9445 31.4506 33.3417 32.7498 34.3768C34.046 35.4119 35.6292 35.9317 37.4965 35.9317C39.437 35.9317 41.0456 35.4374 42.3209 34.4564C43.5976 33.4754 44.4587 32.1353 44.9102 30.4407H42.1983C41.841 31.3841 41.2504 32.1398 40.4297 32.7002C39.6089 33.2651 38.6162 33.546 37.4516 33.546C36.3767 33.546 35.4378 33.2485 34.629 32.6551C33.8247 32.0662 33.2417 31.2414 32.8814 30.1943H37.8777V28.9323H32.5943C32.5495 28.5868 32.5241 28.2277 32.5241 27.8521C32.5241 27.6418 32.5405 27.3413 32.5689 26.9537H37.8777V25.6707H32.8395C33.1669 24.5575 33.7455 23.6921 34.5752 23.0687C35.4035 22.4467 36.3603 22.1372 37.4516 22.1372Z"
       fill="#FCC75D"
       id="path7077" />
  </g>
  <defs
     id="defs7084">
    <clipPath
       id="clip0_709_416">
      <rect
         width="73"
         height="78"
         fill="white"
         id="rect7081" />
    </clipPath>
  </defs>
  <path
     style="fill:#a776b2;stroke:#a776b2;stroke-width:0.0939759;fill-opacity:1;stroke-opacity:1"
     d="M 34.808434,77.93535 C 31.759063,77.793397 28.293448,77.160456 25.344791,76.20696 23.38992,75.574822 20.744104,74.465236 19.617995,73.805292 l -0.421728,-0.24715 1.883335,-1.897704 c 1.510433,-1.521957 1.931295,-2.002463 2.125558,-2.426788 0.307203,-0.67102 0.414313,-1.343187 0.350405,-2.198971 l -0.05041,-0.67496 0.553443,-0.534963 c 0.688098,-0.665117 1.496136,-1.201606 2.133475,-1.416496 0.451064,-0.152084 1.07655,-0.162601 8.381416,-0.140937 8.216615,0.02437 9.871618,-0.02828 11.14761,-0.354623 1.784547,-0.456411 3.24118,-1.238946 4.485992,-2.409977 0.728108,-0.684952 10.933859,-12.842923 11.544148,-13.752386 0.379793,-0.565974 0.751817,-1.665316 0.833564,-2.463203 0.232462,-2.268963 -1.194407,-4.352789 -3.430178,-5.009496 -0.72894,-0.214109 -1.998213,-0.196218 -2.759424,0.0389 -0.336236,0.103853 -0.858733,0.355162 -1.161103,0.558466 -0.332881,0.223816 -1.850844,1.715696 -3.847777,3.781658 -3.56944,3.69283 -4.079097,4.248249 -4.079097,4.445362 0,0.07103 -0.239361,-0.09902 -0.531914,-0.377885 -0.292553,-0.278866 -0.82086,-0.658865 -1.174016,-0.844443 -1.152334,-0.605535 -1.164272,-0.606369 -8.703666,-0.608181 l -6.791524,-0.0016 -0.679561,-0.238365 c -4.341687,-1.522904 -9.027283,-1.216008 -13.018803,0.852701 -0.532487,0.275975 -1.31435,0.747546 -1.737472,1.047936 -1.171606,0.831763 -2.636127,2.344017 -3.441233,3.55339 -0.378498,0.568554 -0.757282,1.074554 -0.841742,1.124443 -0.08446,0.04989 -0.4736798,0.11905 -0.8649325,0.15369 -1.2339429,0.109247 -1.5669058,0.327634 -3.6669484,2.405126 L 4.0144487,57.99 3.4806091,56.808946 C 2.0130666,53.562189 1.0913087,50.606236 0.56012259,47.443339 0.12512867,44.853209 0.08433735,44.121265 0.08433735,38.906024 c 0,-5.227524 0.0504022,-6.066577 0.52327949,-8.711116 C 1.521871,25.081995 3.6374574,19.955676 6.576865,15.730705 c 1.5859052,-2.279508 4.044812,-5.017506 6.103864,-6.7966657 9.84934,-8.51049088 23.374552,-11.1347071 35.646516,-6.9162812 5.461574,1.8773888 10.116897,4.8443386 14.25284,9.0836789 5.07599,5.202889 8.439969,11.708388 9.761193,18.876876 0.528151,2.865559 0.574385,3.591734 0.574385,9.021687 0,5.429953 -0.04623,6.156128 -0.574385,9.021687 -1.321224,7.168488 -4.685203,13.673987 -9.761193,18.876876 -2.960358,3.034366 -5.92628,5.232264 -9.587314,7.104682 -5.563562,2.845458 -11.93435,4.223051 -18.184337,3.932105 z M 39.46393,40.798567 c 2.521949,-0.489264 4.754474,-1.651335 6.608897,-3.440054 2.070235,-1.996883 3.372434,-4.429766 3.925096,-7.333212 0.214152,-1.125062 0.215989,-3.354059 0.0037,-4.531852 -0.317133,-1.759765 -0.988762,-3.485649 -1.903789,-4.892163 -2.142755,-3.293689 -5.362521,-5.39514 -9.198907,-6.003869 -1.143372,-0.181421 -3.488328,-0.124896 -4.560407,0.109929 -5.3554,1.173032 -9.335972,5.243113 -10.397206,10.631001 -0.228509,1.160142 -0.229593,3.625297 -0.0021,4.78093 0.786615,3.995939 3.044689,7.190027 6.499308,9.193393 1.417105,0.821793 3.304894,1.447956 4.980723,1.652063 1.050237,0.127913 2.926029,0.05085 4.044652,-0.166166 z"
     id="path7653" />
  <path
     style="fill:#a776b2;fill-opacity:1;stroke:#a776b2;stroke-width:0.0939759;stroke-opacity:1"
     d="m 34.385542,77.942041 c -5.037183,-0.409169 -9.351387,-1.530886 -13.579518,-3.530749 -1.871389,-0.885147 -1.90199,-0.530411 0.235994,-2.735649 2.319236,-2.39219 2.418821,-2.563741 2.488711,-4.287259 l 0.04758,-1.173411 0.717878,-0.620157 c 0.394834,-0.341086 0.986882,-0.765991 1.315663,-0.944233 l 0.597785,-0.324077 8.692771,-0.05608 c 6.149446,-0.03967 8.953876,-0.09064 9.585198,-0.174213 2.415477,-0.319746 4.408491,-1.299151 5.971311,-2.934415 0.974168,-1.019325 7.171851,-8.351674 9.982346,-11.809902 1.359497,-1.672822 1.698126,-2.228735 1.937003,-3.179906 0.242052,-0.963817 0.266991,-1.449598 0.112576,-2.192901 -0.530295,-2.552666 -2.788527,-4.147183 -5.347771,-3.776015 -1.434248,0.208011 -1.671743,0.377208 -4.43223,3.157635 -2.520525,2.538732 -4.93843,5.077968 -5.264646,5.528826 l -0.185956,0.257007 -0.657831,-0.530376 c -0.361808,-0.291706 -0.95905,-0.673807 -1.327204,-0.849113 -0.619161,-0.294827 -0.770724,-0.325279 -2.020482,-0.405945 -0.743111,-0.04796 -4.011306,-0.08811 -7.262657,-0.08922 l -5.911548,-0.002 -0.999583,-0.323144 c -1.997946,-0.645893 -2.714851,-0.750398 -5.173707,-0.754181 -1.931956,-0.003 -2.331966,0.02275 -3.195181,0.205481 -2.007837,0.425029 -4.124874,1.298831 -5.779518,2.385481 -0.998867,0.655985 -2.842787,2.510139 -3.685647,3.706104 -0.365846,0.51911 -0.728496,0.99639 -0.805891,1.060621 -0.07739,0.06423 -0.524859,0.17417 -0.9943663,0.244307 -1.284577,0.191896 -1.5329194,0.370445 -4.3051291,3.095217 L 3.9962463,58.01542 3.7471215,57.458914 C 1.3961245,52.207162 0.3405984,48.110522 0.12909538,43.416867 -0.06200397,39.176009 0.06891996,33.443363 0.40596172,31.293976 1.2562981,25.8712 3.250432,20.691392 6.17652,16.304819 7.8069119,13.860658 10.483401,10.827593 12.724096,8.8849402 20.573939,2.0792326 31.199342,-1.0655564 41.480723,0.37387233 48.213158,1.3164364 54.388987,4.0231436 59.587734,8.3097102 c 1.464163,1.2072587 4.151382,3.9356998 5.329023,5.4107718 4.310078,5.398652 6.94304,11.699583 7.830654,18.739506 0.227352,1.803194 0.227352,11.27683 0,13.080024 -0.887644,7.040156 -3.541404,13.386857 -7.835593,18.739506 -6.097819,7.600849 -14.693344,12.338389 -24.46483,13.484119 -1.221631,0.14324 -5.091976,0.257154 -6.061446,0.178404 z m 4.686555,-37.109456 c 1.030268,-0.155289 2.818643,-0.719138 3.736776,-1.178152 2.972883,-1.486272 5.386974,-4.21224 6.559577,-7.407011 0.593435,-1.61682 0.705523,-2.325754 0.707932,-4.477542 0.0024,-2.112352 -0.05731,-2.539433 -0.577771,-4.13494 -1.6764,-5.139101 -6.313301,-8.755392 -11.682948,-9.111461 -3.897225,-0.258431 -7.599849,1.1971 -10.359715,4.072489 -1.65941,1.728868 -2.766836,3.75175 -3.375949,6.166683 -0.271804,1.07761 -0.348048,3.97482 -0.136574,5.189684 0.847187,4.866878 4.297646,8.880337 8.945906,10.405577 1.870989,0.613931 4.115563,0.786254 6.182766,0.474673 z"
     id="path7655" />
  <path
     style="fill:#a776b2;fill-opacity:1;stroke:#a776b2;stroke-width:0.0939759;stroke-opacity:1"
     d="m 35.905052,35.748954 c -2.143909,-0.38739 -4.030073,-1.792525 -4.995849,-3.721756 -0.233412,-0.466262 -0.490657,-1.075716 -0.571655,-1.354342 l -0.14727,-0.506591 h -1.027067 -1.027066 v -0.610843 -0.610844 l 0.916265,5.2e-5 0.916265,5.2e-5 -0.01491,-1.010293 -0.01491,-1.010293 -0.901355,-0.0269 -0.901355,-0.0269 v -0.60744 -0.60744 h 1.019787 1.019787 l 0.164791,-0.608791 c 0.633609,-2.340739 2.458443,-4.205816 4.843827,-4.950649 0.626276,-0.195553 0.888089,-0.220078 2.349398,-0.220078 1.428923,0 1.740688,0.02786 2.377513,0.212426 2.364343,0.685256 4.150938,2.463274 4.862117,4.838778 l 0.07737,0.258434 -1.332597,-0.0051 -1.332596,-0.0051 L 41.91917,24.6302 c -1.360714,-2.785227 -5.621447,-3.404809 -7.849883,-1.141506 -0.483742,0.491311 -1.026338,1.384849 -1.187335,1.955282 l -0.05968,0.211446 h 2.496694 2.496695 v 0.610843 0.610843 h -2.622507 -2.622507 l -0.06485,0.471492 c -0.03567,0.25932 -0.03548,0.7245 4.05e-4,1.033734 l 0.06526,0.562244 h 2.622099 2.622098 v 0.609309 0.609308 l -2.49168,0.02503 -2.491679,0.02503 0.331194,0.690987 c 0.589386,1.229666 1.718565,2.164498 3.025752,2.504977 0.689823,0.179676 1.998693,0.179794 2.688041,2.81e-4 1.315629,-0.342678 2.563091,-1.317814 3.099702,-2.423025 l 0.261331,-0.53828 h 1.312765 c 0.722022,0 1.312766,0.01452 1.312766,0.03228 0,0.153524 -0.434948,1.229294 -0.718508,1.777105 -0.4812,0.929636 -1.795804,2.249145 -2.711612,2.721733 -1.618062,0.834975 -3.622719,1.114043 -5.528683,0.769647 z"
     id="path7657" />
  <path
     style="fill:#a776b2;fill-opacity:1;stroke:#a776b2;stroke-width:0.0939759;stroke-opacity:1"
     d="m 17.29683,59.637655 -4.660373,-4.73032 0.331966,-0.553065 c 1.47935,-2.464649 3.551684,-4.09221 6.441949,-5.059353 3.118617,-1.043554 5.780233,-1.016762 9.217408,0.09278 l 1.008505,0.325552 h 6.73681 c 4.522004,0 6.93414,0.03436 7.337029,0.104523 0.84407,0.146989 1.406606,0.542214 1.750478,1.229847 0.608697,1.217195 0.182443,2.558366 -1.019638,3.208202 -0.369632,0.19982 -0.465281,0.203995 -5.73253,0.250199 -4.943358,0.04336 -5.383255,0.06024 -5.701775,0.218707 -0.648957,0.322873 -0.838464,1.292123 -0.353555,1.808285 0.427622,0.455183 0.536385,0.463427 6.102318,0.462513 4.761665,-7.51e-4 5.268833,-0.01579 5.826506,-0.172369 1.411663,-0.39637 2.457345,-1.229709 3.047299,-2.428495 0.340083,-0.691048 0.617761,-1.831868 0.617761,-2.538023 0,-0.350768 0.06789,-0.44809 0.961123,-1.377877 7.315349,-7.614679 7.259205,-7.55918 7.851152,-7.760877 1.18792,-0.404765 2.516848,0.182779 2.993457,1.323464 0.186775,0.447015 0.161111,1.412438 -0.0496,1.865877 -0.237093,0.510208 -9.901742,12.175084 -11.277467,13.611487 -0.926061,0.966907 -1.958711,1.567135 -3.391916,1.971553 -0.689331,0.194513 -0.906167,0.200064 -9.86747,0.252595 l -9.162651,0.05371 -0.702247,0.213864 c -1.103162,0.335958 -2.057781,0.883755 -2.894193,1.660798 l -0.74997,0.696738 z"
     id="path7659" />
  <path
     style="fill:#a776b2;fill-opacity:1;stroke:#a776b2;stroke-width:0.0939759;stroke-opacity:1"
     d="M 16.295181,71.784133 C 12.173847,68.976923 8.9221568,65.695447 6.1721421,61.568365 L 5.273589,60.219862 7.0018547,58.480915 c 0.9505462,-0.956421 1.8931951,-1.861432 2.0947754,-2.011136 0.4045712,-0.300455 0.7751489,-0.344322 1.1652659,-0.137938 0.139572,0.07384 2.606458,2.494892 5.481969,5.380121 5.801338,5.820941 5.639462,5.623874 5.236017,6.374246 -0.228149,0.424338 -3.718899,4.177236 -3.885906,4.177729 -0.05169,1.88e-4 -0.411145,-0.215759 -0.798795,-0.479804 z"
     id="path7661" />
</svg>
