<?xml version="1.0" encoding="UTF-8" standalone="no"?>
<svg
   xmlns:dc="http://purl.org/dc/elements/1.1/"
   xmlns:cc="http://creativecommons.org/ns#"
   xmlns:rdf="http://www.w3.org/1999/02/22-rdf-syntax-ns#"
   xmlns:svg="http://www.w3.org/2000/svg"
   xmlns="http://www.w3.org/2000/svg"
   xmlns:sodipodi="http://sodipodi.sourceforge.net/DTD/sodipodi-0.dtd"
   xmlns:inkscape="http://www.inkscape.org/namespaces/inkscape"
   id="Layer_2"
   data-name="Layer 2"
   viewBox="0 0 73.36 78"
   version="1.1"
   sodipodi:docname="icons-clinical-trials CC.svg"
   inkscape:version="1.0.2-2 (e86c870879, 2021-01-15)">
  <metadata
     id="metadata5281">
    <rdf:RDF>
      <cc:Work
         rdf:about="">
        <dc:format>image/svg+xml</dc:format>
        <dc:type
           rdf:resource="http://purl.org/dc/dcmitype/StillImage" />
        <dc:title></dc:title>
      </cc:Work>
    </rdf:RDF>
  </metadata>
  <sodipodi:namedview
     pagecolor="#ffffff"
     bordercolor="#666666"
     borderopacity="1"
     objecttolerance="10"
     gridtolerance="10"
     guidetolerance="10"
     inkscape:pageopacity="0"
     inkscape:pageshadow="2"
     inkscape:window-width="1920"
     inkscape:window-height="1001"
     id="namedview5279"
     showgrid="false"
     inkscape:zoom="10.641026"
     inkscape:cx="36.68"
     inkscape:cy="38.812048"
     inkscape:window-x="-9"
     inkscape:window-y="-9"
     inkscape:window-maximized="1"
     inkscape:current-layer="Layer_2" />
  <defs
     id="defs5265">
    <style
       id="style5260">
      .cls-1 {
        fill: #fff;
      }

      .cls-2 {
        fill: #fcc75f;
      }

      .cls-3 {
        clip-path: url(#clippath);
      }

      .cls-4 {
        fill: none;
      }
    </style>
    <clipPath
       id="clippath">
      <rect
         class="cls-4"
         x="12.33"
         y="14"
         width="48"
         height="41"
         id="rect5262" />
    </clipPath>
  </defs>
  <g
     id="Layer_1-2"
     data-name="Layer 1">
    <rect
       class="cls-2"
       x="0"
       y="0"
       width="73.36"
       height="78"
       rx="36.68"
       ry="36.68"
       id="rect5267" />
    <g
       class="cls-3"
       clip-path="url(#clippath)"
       id="g5275">
      <g
         id="g5273">
        <path
           class="cls-1"
           d="m51.39,31.59c.25.24.57.36.89.36s.66-.13.91-.38c.49-.5.48-1.31-.02-1.8l-7.86-7.68-6.16-6.15-.07.07-1.68-1.64c-.5-.49-1.31-.48-1.8.02-.49.5-.48,1.31.02,1.8l1.66,1.62-22.63,22.59-.89.91.1.1c-2.36,3.4-2,8.04,1.01,11.05,1.7,1.69,3.91,2.55,6.14,2.55,1.72,0,3.44-.51,4.93-1.54l.11.11,23.66-23.62,1.68,1.64h0Zm-7.86-7.68l4.31,4.31-1.13,1.13-28.22,10.84,20.62-20.59,4.42,4.32Z"
           id="path5269" />
        <path
           class="cls-1"
           d="m59.58,46.05l-4.12-7.73-4.12,7.73c-.47.75-.75,1.63-.75,2.58,0,2.68,2.18,4.86,4.87,4.86s4.87-2.17,4.87-4.86c0-.95-.28-1.83-.75-2.58Z"
           id="path5271" />
      </g>
    </g>
  </g>
  <path
     style="fill:#f5ac7f;stroke:#f5ab7f;stroke-width:0.0939759;fill-opacity:1;stroke-opacity:1"
     d="M 35.129398,77.937367 C 25.01141,77.45117 15.748762,73.041808 9.2024476,65.595181 4.068754,59.755452 1.0305903,52.777734 0.20049001,44.920482 c -0.17207925,-1.628804 -0.17207925,-10.21216 0,-11.840964 C 1.3769984,21.943365 7.1653359,12.305748 16.38146,6.1381068 23.700735,1.2398803 32.905438,-0.84733116 41.74843,0.38602283 44.093342,0.7130736 46.221336,1.2102664 48.388409,1.9374137 61.171822,6.2268044 70.569756,17.228766 72.802491,30.518459 c 0.433597,2.580863 0.481221,3.432481 0.479559,8.575517 -0.0017,5.227082 -0.06107,6.152621 -0.572733,8.927711 -2.228056,12.084143 -10.445018,22.3244 -21.706944,27.051932 -4.993747,2.096275 -10.641109,3.115152 -15.872975,2.863748 z M 23.189075,54.744685 c 0.57299,-0.14535 1.245578,-0.407099 1.811104,-0.704819 0.494789,-0.260481 0.94646,-0.473601 1.003714,-0.473601 0.05725,0 5.410897,-5.306924 11.896983,-11.793165 l 11.792884,-11.793165 0.846735,0.83176 c 1.054468,1.03582 1.212028,1.140112 1.722421,1.140112 0.517316,0 0.883873,-0.213674 1.135937,-0.662162 0.235902,-0.419731 0.249079,-0.749707 0.04565,-1.143098 -0.08314,-0.160771 -1.256663,-1.372164 -2.607832,-2.691984 -1.351169,-1.319819 -4.539412,-4.473583 -7.084984,-7.008364 -2.545572,-2.534781 -4.628313,-4.571006 -4.628313,-4.524943 0,0.04606 -0.439354,-0.34371 -0.976342,-0.866158 -0.536988,-0.52245 -1.089301,-0.978259 -1.227363,-1.012911 -0.720129,-0.18074 -1.457143,0.221539 -1.66267,0.907523 -0.171192,0.571388 0.008,0.899628 1.053262,1.929703 l 0.93833,0.92467 -11.719305,11.718544 c -6.445619,6.4452 -11.727679,11.775597 -11.737914,11.845327 -0.01023,0.06973 -0.150927,0.33543 -0.312652,0.590443 -0.368186,0.580569 -0.834786,1.779941 -1.005226,2.583883 -0.167302,0.789141 -0.167302,2.78654 0,3.575681 0.566419,2.671726 2.545519,5.09346 5.045951,6.174501 1.227904,0.530875 1.944169,0.67247 3.431036,0.678267 1.111768,0.0043 1.475005,-0.03234 2.238594,-0.226044 z m 33.601769,-1.429463 c 1.514294,-0.414656 2.791721,-1.623211 3.310575,-3.132089 0.278914,-0.81111 0.294377,-2.245195 0.03241,-3.005729 -0.09764,-0.283451 -0.673357,-1.437937 -1.279382,-2.565524 -0.606024,-1.127588 -1.603706,-2.998699 -2.217071,-4.158025 -0.613363,-1.159326 -1.140317,-2.108725 -1.171008,-2.109776 -0.113146,-0.0039 -4.585933,8.520443 -4.729382,9.013339 -0.191231,0.657077 -0.190562,1.896769 0.0014,2.550224 0.385225,1.311507 1.276714,2.413941 2.434692,3.010794 1.226279,0.632055 2.320379,0.752052 3.61779,0.396786 z"
     id="path5844" />
  <path
     style="fill:#f5ac7f;fill-opacity:1;stroke:#f5ab7f;stroke-width:0.0939759;stroke-opacity:1"
     d="m 28.874175,29.843175 10.190235,-10.19056 0.710808,0.649198 c 0.390943,0.35706 2.360084,2.27518 4.375867,4.262489 l 3.66506,3.613289 -0.567101,0.573752 -0.567102,0.573751 -13.935162,5.354321 c -7.664339,2.944876 -13.96389,5.35432 -13.999001,5.35432 -0.03511,0 4.521767,-4.585753 10.126396,-10.19056 z"
     id="path5846" />
</svg>
